<svg width="145" height="34" viewBox="0 0 145 34" fill="none" xmlns="http://www.w3.org/2000/svg">
<path fill-rule="evenodd" clip-rule="evenodd" d="M79.6703 21.2381C79.6703 21.5085 79.6461 21.7874 79.5705 22.0314C79.2591 23.0468 78.1907 23.905 76.8549 23.905C75.7411 23.905 74.8564 23.2829 74.8564 21.9666C74.8564 19.9534 77.1077 19.3968 79.6703 19.4098V21.2381ZM83.6908 17.7304C83.6908 14.4088 82.2499 11.4873 77.3804 11.4873C74.8801 11.4873 72.8955 12.1788 71.8125 12.7944L72.6054 15.4637C73.5947 14.8491 75.1727 14.3402 76.6651 14.3402C79.1353 14.3339 79.5404 15.7164 79.5404 16.603V16.8127C74.1547 16.8048 70.752 18.6396 70.752 22.38C70.752 24.6637 72.485 26.8039 75.4983 26.8039C77.3508 26.8039 78.9016 26.0758 79.8291 24.9094H79.9208C79.9208 24.9094 80.5359 27.4424 83.9264 26.4737C83.7481 25.4195 83.6908 24.2957 83.6908 22.9419V17.7304Z" fill="white"/>
<path fill-rule="evenodd" clip-rule="evenodd" d="M0 6.94043C0 6.94043 3.5211 21.0725 4.08301 23.3664C4.73895 26.0438 5.92081 27.0289 9.3283 26.3644L11.5272 17.602C12.0845 15.4256 12.4584 13.8743 12.8166 11.6605H12.8795C13.1312 13.8961 13.4899 15.4326 13.9485 17.61C13.9485 17.61 14.8434 21.5873 15.3017 23.6765C15.7613 25.7649 17.0401 27.081 20.3778 26.3644L25.617 6.94043H21.3871L19.5983 15.3381C19.1174 17.7824 18.6813 19.6926 18.3449 21.9288H18.2849C17.9789 19.7142 17.5901 17.8805 17.1011 15.499L15.2386 6.94043H10.8316L8.83959 15.2834C8.27522 17.8186 7.7471 19.8655 7.41142 22.0259H7.35094C7.00718 19.9914 6.54908 17.4188 6.05327 14.9647C6.05327 14.9647 4.86969 8.99721 4.45444 6.94043H0Z" fill="white"/>
<path fill-rule="evenodd" clip-rule="evenodd" d="M33.5597 21.2381C33.5597 21.5085 33.536 21.7874 33.4599 22.0314C33.1484 23.0468 32.08 23.905 30.7441 23.905C29.6305 23.905 28.7458 23.2829 28.7458 21.9666C28.7458 19.9534 30.9969 19.3968 33.5597 19.4098V21.2381ZM37.5797 17.7304C37.5797 14.4088 36.1389 11.4873 31.2699 11.4873C28.769 11.4873 26.7838 12.1788 25.7017 12.7944L26.4937 15.4637C27.4841 14.8491 29.0607 14.3402 30.5538 14.3402C33.0259 14.3339 33.4303 15.7164 33.4303 16.603V16.8127C28.0436 16.8048 24.6411 18.6396 24.6411 22.38C24.6411 24.6637 26.3733 26.8039 29.3851 26.8039C31.2391 26.8039 32.7895 26.0758 33.7187 24.9094H33.8098C33.8098 24.9094 34.4253 27.4424 37.8156 26.4737C37.6375 25.4195 37.5797 24.2957 37.5797 22.9419V17.7304Z" fill="white"/>
<path fill-rule="evenodd" clip-rule="evenodd" d="M44.1589 22.2096V6.94043H40.2554V26.3255H44.1589V22.2096Z" fill="white"/>
<path fill-rule="evenodd" clip-rule="evenodd" d="M96.6128 6.94043C96.6128 8.79182 96.6128 21.1765 96.6128 21.1765C96.6128 23.1391 96.9968 24.5143 97.8181 25.3543C98.5357 26.0891 99.7175 26.5648 101.134 26.5648C102.338 26.5648 103.523 26.3449 104.081 26.1448L104.029 23.0827C103.613 23.1811 103.135 23.2597 102.482 23.2597C101.094 23.2597 100.629 22.4046 100.629 20.6423V15.1961H104.176V11.5038H100.629V6.94043H96.6128Z" fill="white"/>
<path fill-rule="evenodd" clip-rule="evenodd" d="M86.3662 11.8147V26.3253H90.547V18.8952C90.547 18.4943 90.5722 18.1447 90.6377 17.8243C90.9469 16.2678 92.1772 15.2729 93.9426 15.2729C94.4272 15.2729 94.7739 15.3237 95.1492 15.3762V11.5772C94.8345 11.5157 94.6194 11.4873 94.2279 11.4873C92.6677 11.4873 90.8927 12.4621 90.1476 14.5516H90.034V11.8147H86.3662Z" fill="white"/>
<path fill-rule="evenodd" clip-rule="evenodd" d="M47.0864 11.8147V26.3253H51.1284V17.8154C51.1284 17.4165 51.1753 16.9949 51.318 16.6279C51.6529 15.7711 52.4699 14.7688 53.7745 14.7688C55.4054 14.7688 56.1686 16.114 56.1686 18.0553V26.3253H60.2064V17.7126C60.2064 17.3318 60.2599 16.8733 60.3748 16.5365C60.7068 15.5619 61.5875 14.7688 62.8002 14.7688C64.4537 14.7688 65.2474 16.0904 65.2474 18.3746C65.2474 18.3746 65.2474 24.5043 65.2474 26.3253H69.2878V17.7792C69.2878 13.272 66.9421 11.4873 64.2938 11.4873C63.1209 11.4873 62.1952 11.7742 61.3582 12.2754C60.6547 12.6966 60.0248 13.2949 59.4743 14.0827H59.4146C58.7756 12.5189 57.273 11.4873 55.3152 11.4873C52.7992 11.4873 51.6688 12.7311 50.9832 13.7863H50.9233V11.8147H47.0864Z" fill="white"/>
<path fill-rule="evenodd" clip-rule="evenodd" d="M125.763 11.2481C126.558 11.2481 127.212 10.8419 127.3 10.3153L128.085 1.57391C128.085 0.709755 127.058 0 125.765 0C124.475 0 123.45 0.709755 123.45 1.57391L124.233 10.3153C124.32 10.8419 124.974 11.2481 125.766 11.2481H125.763Z" fill="#FDBB30"/>
<path fill-rule="evenodd" clip-rule="evenodd" d="M130.562 13.9383C130.965 14.6186 131.66 14.9752 132.172 14.789L140.359 11.0661C141.13 10.6323 141.241 9.39575 140.589 8.28935C139.932 7.1815 138.778 6.65848 138.011 7.09296L130.617 12.1576C130.194 12.497 130.163 13.2625 130.565 13.9431L130.562 13.9383Z" fill="#FDBB30"/>
<path fill-rule="evenodd" clip-rule="evenodd" d="M125.763 22.2568C126.558 22.2568 127.212 22.6615 127.3 23.1875L128.085 31.9307C128.085 32.7965 127.058 33.505 125.765 33.505C124.475 33.505 123.45 32.7965 123.45 31.9307L124.233 23.1875C124.32 22.6615 124.974 22.2568 125.766 22.2568H125.763Z" fill="#FDBB30"/>
<path fill-rule="evenodd" clip-rule="evenodd" d="M120.968 13.9431C121.372 13.2625 121.341 12.497 120.916 12.1576L113.522 7.09296C112.754 6.65848 111.601 7.1815 110.947 8.28935C110.291 9.39575 110.407 10.6323 111.175 11.0661L119.36 14.789C119.873 14.9752 120.569 14.6186 120.971 13.9383L120.968 13.9431Z" fill="#FDBB30"/>
<path fill-rule="evenodd" clip-rule="evenodd" d="M130.562 19.3254C130.965 18.6438 131.66 18.2896 132.172 18.478L140.359 22.197C141.13 22.6328 141.241 23.87 140.589 24.9777C139.932 26.0821 138.778 26.6069 138.011 26.1738L130.617 21.1126C130.194 20.769 130.163 20.0039 130.565 19.324L130.562 19.3254Z" fill="#FDBB30"/>
<path fill-rule="evenodd" clip-rule="evenodd" d="M120.968 19.324C121.372 20.0039 121.341 20.769 120.916 21.1126L113.522 26.1738C112.754 26.6069 111.601 26.0821 110.947 24.9777C110.291 23.87 110.407 22.6328 111.175 22.197L119.36 18.478C119.873 18.2896 120.569 18.6438 120.972 19.3254L120.968 19.324Z" fill="#FDBB30"/>
<path fill-rule="evenodd" clip-rule="evenodd" d="M142.854 25.556H143.027C143.216 25.556 143.382 25.5033 143.382 25.354C143.382 25.234 143.3 25.1514 143.052 25.1514C142.953 25.1514 142.896 25.1589 142.854 25.1665V25.556ZM142.854 26.2582H142.598V25.0098C142.738 24.9874 142.886 24.9723 143.077 24.9723C143.308 24.9723 143.424 25.0098 143.514 25.069C143.597 25.1214 143.654 25.2188 143.654 25.3313C143.654 25.4884 143.531 25.5854 143.382 25.6302V25.6453C143.506 25.6899 143.572 25.7873 143.613 25.9447C143.654 26.1384 143.68 26.2134 143.713 26.2582H143.448C143.407 26.2134 143.374 26.1013 143.341 25.9293C143.308 25.7949 143.216 25.735 143.019 25.735H142.854V26.2582ZM143.085 24.6201C142.491 24.6201 142.036 25.0615 142.036 25.5998C142.036 26.1542 142.491 26.5868 143.102 26.5868C143.697 26.5953 144.134 26.1542 144.134 25.6078C144.134 25.0615 143.697 24.6201 143.094 24.6201H143.085ZM143.102 24.4111C143.845 24.4111 144.431 24.9346 144.431 25.5999C144.431 26.2809 143.845 26.8043 143.094 26.8043C142.342 26.8043 141.748 26.2809 141.748 25.5999C141.748 24.9346 142.342 24.4111 143.094 24.4111H143.102Z" fill="#FDBB30"/>
</svg>
