<svg width="80" height="75" viewBox="0 0 80 75" fill="none" xmlns="http://www.w3.org/2000/svg">
<path d="M35.4107 5.80695L36.3051 4.91256C36.8563 4.38016 37.1701 3.64865 37.1768 2.8824C37.1836 2.11545 36.882 1.37868 36.3405 0.83718C35.7983 0.294966 35.0615 -0.00668315 34.2953 0.000112378C33.5291 0.0068996 32.7969 0.321375 32.2644 0.872623L26.5503 6.58666C26.0149 7.12208 25.714 7.84906 25.714 8.60698C25.714 9.36412 26.0149 10.0911 26.5503 10.6265L32.2644 16.3406C32.9906 17.0419 34.032 17.3081 35.0048 17.0411C35.9784 16.7742 36.7385 16.014 37.0046 15.0413C37.2716 14.0685 37.0054 13.0269 36.3048 12.3009L35.5303 11.5264V11.5271C44.5608 11.9525 52.7031 17.0933 56.971 25.062C61.2392 33.0315 61.0062 42.658 56.3564 50.4101C51.7065 58.1622 43.3244 62.9029 34.2844 62.8907H2.85705C1.83597 62.8907 0.8933 63.4352 0.382864 64.319C-0.127573 65.2028 -0.127669 66.2926 0.382864 67.1764C0.893397 68.0602 1.83604 68.6047 2.85705 68.6047H34.2844C45.3934 68.6371 55.6923 62.7995 61.3719 53.2516C67.0504 43.703 67.2624 31.865 61.93 22.1196C56.5976 12.3748 46.5136 6.1708 35.4101 5.80573L35.4107 5.80695Z" fill="white"/>
<path d="M79.1627 63.7291L73.4487 58.0151C72.7232 57.3137 71.6818 57.0475 70.7082 57.3145C69.7354 57.5814 68.9753 58.3416 68.7084 59.3143C68.4414 60.2872 68.7076 61.3287 69.409 62.0548L70.246 62.8918H60.0006C58.9795 62.8918 58.0369 63.4363 57.5264 64.3201C57.016 65.2039 57.0159 66.2937 57.5264 67.1775C58.037 68.0613 58.9796 68.6058 60.0006 68.6058H70.246L69.409 69.4429C68.8577 69.9753 68.5432 70.7068 68.5364 71.473C68.5304 72.24 68.8313 72.9768 69.3735 73.5183C69.9157 74.0605 70.6525 74.3621 71.4187 74.3553C72.185 74.3485 72.9164 74.0341 73.4489 73.4828L79.1629 67.7688C79.6991 67.2334 80 66.5064 80 65.7485C80 64.9913 79.6991 64.2644 79.1629 63.7289L79.1627 63.7291Z" fill="white"/>
<path d="M11.4602 57.1789C12.1706 57.1789 12.8561 56.9134 13.3825 56.4353C13.9081 55.9564 14.2369 55.2988 14.304 54.5915C14.3711 53.8834 14.172 53.176 13.7452 52.6075C10.3774 48.1703 8.55994 42.7497 8.57113 37.1789C8.58244 28.0036 13.4821 19.5295 21.4282 14.9429C22.3135 14.4323 22.8588 13.4889 22.8595 12.4671C22.8595 11.4453 22.315 10.5011 21.4305 9.98985C20.5459 9.47857 19.4561 9.47857 18.5715 9.98835C8.85856 15.6012 2.87077 25.9621 2.85725 37.1801C2.84217 43.9876 5.06078 50.6125 9.17459 56.0369C9.71379 56.7564 10.5607 57.1802 11.4604 57.1802L11.4602 57.1789Z" fill="white"/>
</svg>
