<svg width="82" height="79" viewBox="0 0 82 79" fill="none" xmlns="http://www.w3.org/2000/svg">
<path d="M40.999 0.7C36.9065 0.7 33.5613 4.04708 33.5613 8.14293C33.5613 12.238 36.9057 15.5859 40.999 15.5859C45.091 15.5859 48.4472 12.2393 48.4472 8.14293C48.4472 4.04732 45.0916 0.7 40.999 0.7ZM40.999 4.15891C43.2171 4.15891 44.99 5.92419 44.99 8.14235C44.99 10.362 43.2163 12.1362 40.999 12.1362C38.7828 12.1362 37.0187 10.3623 37.0187 8.14235C37.0187 5.92269 38.7819 4.15891 40.999 4.15891Z" fill="white" stroke="white" stroke-width="0.6"/>
<path d="M53.8556 35.2894V35.5894H53.8549C53.8547 35.5894 53.8546 35.5894 53.8544 35.5894L28.143 35.5894H28.1421C27.192 35.5866 26.4229 34.8173 26.4192 33.8675L26.4192 33.8664L26.4192 32.4321C26.4192 24.3794 32.943 17.847 40.9991 17.847H41.157L41.1581 17.8486L40.9996 18.1477C48.8899 18.1477 55.2899 24.5457 55.2899 32.4328V33.8664C55.2884 34.2449 55.1361 34.6084 54.8676 34.8746C54.5984 35.1416 54.2342 35.2909 53.8556 35.2894ZM53.8556 35.2894H28.143H53.8556ZM40.9991 21.3043C47.0896 21.3043 51.9709 26.0849 52.1276 32.1328H29.8702C30.0269 26.0856 34.9082 21.3043 40.9987 21.3043H40.9991Z" fill="white" stroke="white" stroke-width="0.6"/>
<path d="M15.2902 40.5074C11.1985 40.5074 7.84209 43.8514 7.84209 47.9451C7.84209 52.0374 11.1973 55.3932 15.2902 55.3932C19.3831 55.3932 22.7279 52.0375 22.7279 47.9451C22.7279 43.8527 19.3834 40.5074 15.2902 40.5074ZM15.2902 43.9647C17.5076 43.9647 19.2706 45.7278 19.2706 47.9451C19.2706 50.1634 17.5066 51.9361 15.2902 51.9361C13.0729 51.9361 11.2993 50.1625 11.2993 47.9451C11.2993 45.7287 13.0719 43.9647 15.2902 43.9647Z" fill="white" stroke="white" stroke-width="0.6"/>
<path d="M0.699998 73.6624L0.700002 73.6636L2.43432 75.0869V75.3869H2.43501C2.43518 75.3869 2.43534 75.3869 2.43551 75.3869L28.1469 75.3869L28.1481 75.3869C29.0986 75.3833 29.8679 74.6141 29.8707 73.6633V73.6624V72.2281C29.8707 64.17 23.3468 57.6446 15.2908 57.6446H15.2903C7.23459 57.6446 0.7 64.1697 0.7 72.2281L0.699998 73.6624ZM15.2903 61.0929C21.3807 61.0929 26.2622 65.8763 26.4188 71.9281H4.16143C4.31802 65.8769 9.19954 61.0929 15.2899 61.0929H15.2903Z" fill="white" stroke="white" stroke-width="0.6"/>
<path d="M66.7194 40.5074C62.6277 40.5074 59.2713 43.8514 59.2713 47.9451C59.2713 52.0374 62.6265 55.3932 66.7194 55.3932C70.8123 55.3932 74.1571 52.0375 74.1571 47.9451C74.1571 43.8527 70.8126 40.5074 66.7194 40.5074ZM66.7194 43.9647C68.9368 43.9647 70.6998 45.7278 70.6998 47.9451C70.6998 50.1634 68.9358 51.9361 66.7194 51.9361C64.5021 51.9361 62.7285 50.1625 62.7285 47.9451C62.7285 45.7287 64.5011 43.9647 66.7194 43.9647Z" fill="white" stroke="white" stroke-width="0.6"/>
<path d="M55.5914 71.9281C55.748 65.8771 60.6292 61.0932 66.7193 61.0929L55.5914 71.9281ZM55.5914 71.9281H77.8371C77.6809 65.8762 72.8096 61.0932 66.7198 61.0929L55.5914 71.9281ZM52.129 72.2281V73.3624H52.1271L52.1282 73.6636C52.1319 74.614 52.9009 75.3833 53.8508 75.3869H53.852L79.5762 75.3869L79.5773 75.3869C80.5272 75.3833 81.2963 74.614 81.2999 73.6636V73.6624V72.2281C81.2999 64.17 74.776 57.6446 66.7201 57.6446H66.7193C58.6636 57.6446 52.129 64.1697 52.129 72.2281Z" fill="white" stroke="white" stroke-width="0.6"/>
<path d="M58.4355 23.5503L58.433 23.5491L58.3889 23.542L58.3887 23.542C57.6683 23.426 57.0002 23.8518 56.6856 24.3926C56.1761 25.2156 56.4527 26.1858 57.2348 26.7572C60.8078 29.4817 63.6873 33.0931 65.5325 37.2518L65.5325 37.2519L65.5347 37.2567C65.938 38.1235 66.9681 38.4985 67.834 38.0943C68.6992 37.6904 69.0724 36.6618 68.6692 35.7973C66.5411 31.0447 63.2149 26.9332 59.093 23.8496M59.093 23.8496C59.0932 23.8497 59.0934 23.8499 59.0936 23.85L58.9127 24.0893L59.0924 23.8491C59.0926 23.8493 59.0928 23.8494 59.093 23.8496Z" fill="white" stroke="white" stroke-width="0.6"/>
</svg>
