<svg width="60" height="42" viewBox="0 0 60 42" fill="none" xmlns="http://www.w3.org/2000/svg">
<path d="M37.5113 0C37.0626 0 36.6992 0.363404 36.6992 0.812046C36.6992 1.26069 37.0626 1.62463 37.5113 1.62463H46.5703C47.0189 1.62463 47.3823 1.26069 47.3823 0.812046C47.3823 0.363404 47.0189 0 46.5703 0H37.5113Z" fill="white"/>
<path d="M32.2533 4.18751e-05C31.5892 0.00164991 30.9529 0.266433 30.4839 0.737044C30.0149 1.20712 29.7517 1.84389 29.7517 2.50796V4.16526C29.7517 4.61388 30.1151 4.9773 30.5638 4.9773C31.0124 4.9773 31.3763 4.6139 31.3763 4.16526V2.50796C31.3763 2.02287 31.7676 1.62784 32.2532 1.62463H34.9112C35.3599 1.62463 35.7233 1.26069 35.7233 0.812046C35.7233 0.363404 35.3599 0 34.9112 0L32.2533 4.18751e-05Z" fill="white"/>
<path d="M58.416 39.2039C57.3531 39.1798 56.2988 39.4022 55.3362 39.8536C53.7765 40.5471 51.9958 40.5471 50.4361 39.8536C48.4765 38.9874 46.2425 38.9874 44.2822 39.8536C42.7251 40.5466 40.9466 40.5466 39.3891 39.8536C37.4295 38.9874 35.1949 38.9874 33.2352 39.8536C31.6775 40.5466 29.8992 40.5466 28.3421 39.8536C27.3789 39.4033 26.3246 39.1809 25.2617 39.2039C24.2009 39.1803 23.1488 39.4028 22.1883 39.8536C21.4267 40.2186 20.5889 40.3965 19.7446 40.3735C18.8983 40.3971 18.0584 40.2191 17.295 39.8536C16.3345 39.4022 15.2824 39.1798 14.2211 39.2039C13.1604 39.1798 12.1077 39.4022 11.1478 39.8536C10.3861 40.2186 9.54836 40.3965 8.70407 40.3735C7.85772 40.3971 7.01782 40.2191 6.25407 39.8536C5.29355 39.4028 4.24138 39.1803 3.1807 39.2039C2.73207 39.2039 2.36865 39.5673 2.36865 40.016C2.36865 40.4646 2.73206 40.8285 3.1807 40.8285C4.02489 40.8055 4.86215 40.9835 5.62384 41.3485C6.58703 41.7998 7.64133 42.0222 8.7042 41.9981C9.76496 42.0206 10.8171 41.7982 11.7781 41.3485C12.5393 40.9829 13.377 40.8044 14.2213 40.8285C15.0655 40.8044 15.9033 40.9829 16.6649 41.3485C17.6276 41.7987 18.6819 42.0212 19.7448 41.9981C20.8061 42.0212 21.8576 41.7987 22.8187 41.3485C23.5803 40.9835 24.4175 40.8055 25.2618 40.8285C26.1082 40.8044 26.9481 40.9829 27.7118 41.3485C29.6714 42.2147 31.906 42.2147 33.8657 41.3485C35.4234 40.6549 37.2013 40.6549 38.7588 41.3485C40.7184 42.2147 42.953 42.2147 44.9127 41.3485C46.4704 40.6549 48.2487 40.6549 49.8058 41.3485C51.7682 42.2152 54.0044 42.2152 55.9666 41.3485C56.7299 40.9819 57.5698 40.8039 58.4162 40.8285C58.8648 40.8285 59.2287 40.4646 59.2287 40.016C59.2287 39.5673 58.8648 39.2039 58.4162 39.2039H58.416Z" fill="white"/>
<path d="M1.94485 26.2401L5.30445 35.2728C4.61301 35.0686 3.89428 34.97 3.17335 34.9802C2.72472 34.9802 2.36076 35.3441 2.36076 35.7927C2.36076 36.2414 2.7247 36.6048 3.17335 36.6048C4.01754 36.5817 4.85479 36.7602 5.61648 37.1247C6.57967 37.5766 7.63397 37.7985 8.69685 37.7749C9.7576 37.7974 10.8097 37.575 11.7702 37.1247C12.5319 36.7597 13.3696 36.5812 14.2139 36.6048C15.0581 36.5812 15.8959 36.7597 16.657 37.1247C17.6202 37.5755 18.6745 37.7979 19.7374 37.7749C20.7982 37.7979 21.8503 37.5755 22.8113 37.1247C23.573 36.7602 24.4102 36.5817 25.2545 36.6048C26.1008 36.5812 26.9407 36.7592 27.7045 37.1247C29.6641 37.9914 31.8981 37.9914 33.8583 37.1247C35.4155 36.4317 37.1939 36.4317 38.7515 37.1247C40.7111 37.9914 42.9456 37.9914 44.9054 37.1247C46.463 36.4317 48.2414 36.4317 49.7985 37.1247C51.7608 37.9914 53.997 37.9914 55.9588 37.1247C56.7226 36.7586 57.5626 36.5807 58.4088 36.6048C58.8575 36.6048 59.2214 36.2414 59.2214 35.7927C59.2214 35.3441 58.8575 34.9802 58.4088 34.9802C57.3459 34.9566 56.2916 35.1785 55.3284 35.6303L55.1725 35.6952L58.6945 26.2466C58.7267 26.1662 58.7422 26.0799 58.7401 25.9931V21.5357C58.7401 21.0919 58.3847 20.7301 57.9409 20.7232H53.6845V18.5851C53.6845 18.3696 53.5987 18.1632 53.4465 18.011C53.2943 17.8588 53.0879 17.773 52.8724 17.773H47.381V11.2032C47.381 10.9878 47.2958 10.7814 47.143 10.6286C46.9908 10.4764 46.7845 10.3906 46.569 10.3906H32.7595V6.77156C32.7595 6.55609 32.6738 6.3492 32.5215 6.19697C32.3693 6.04474 32.1624 5.95898 31.947 5.95898H27.0736C26.6249 5.95898 26.261 6.32292 26.261 6.77156V10.3912L20.575 10.3907C20.1264 10.3907 19.763 10.7546 19.763 11.2032V16.2979H15.0515C14.8403 16.2953 14.6367 16.3773 14.486 16.5252L8.87787 21.919H1.58071C1.31914 21.9196 1.07472 22.0461 0.922495 22.2589C0.770802 22.4711 0.730076 22.744 0.813686 22.991L1.93768 26.2403L1.94485 26.2401ZM53.2816 36.1369H52.885H52.8855C52.0391 36.1599 51.1998 35.982 50.4355 35.6175C48.4759 34.7508 46.2419 34.7508 44.2816 35.6175C42.7245 36.3105 40.946 36.3105 39.3885 35.6175C37.4289 34.7508 35.1943 34.7508 33.2346 35.6175C31.6769 36.3105 29.8986 36.3105 28.3415 35.6175C27.3783 35.1667 26.324 34.9443 25.2611 34.9673C24.2003 34.9443 23.1482 35.1667 22.1877 35.6175C21.4261 35.9819 20.5883 36.1599 19.744 36.1369C18.8977 36.161 18.0578 35.9825 17.2945 35.6175C16.3339 35.1656 15.2818 34.9432 14.2205 34.9673C13.1598 34.9432 12.1071 35.1656 11.1472 35.6175C10.3855 35.9819 9.54777 36.1599 8.70348 36.1369C8.23555 36.1444 7.76869 36.0945 7.31307 35.9879L3.87511 26.7794H56.772L53.2816 36.1369ZM57.129 25.1681H42.9957V22.3476H57.129V25.1681ZM52.0928 20.7229H42.9952V19.4231H52.0928V20.7229ZM27.8864 7.58338H31.1357V10.3904H27.8864V7.58338ZM21.388 14.9652L35.1974 14.9657C35.6461 14.9657 36.01 14.6018 36.01 14.1532C36.01 13.7045 35.6461 13.3411 35.1974 13.3411H21.388V12.0413H45.7562V17.799L42.9948 17.7985V17.1489C42.9964 16.9329 42.9111 16.7254 42.7584 16.5727C42.6061 16.4199 42.3982 16.3347 42.1822 16.3368H21.387L21.388 14.9652ZM15.351 17.9218H41.3439V25.1681H39.0241V22.7181C39.0172 22.2748 38.6554 21.9189 38.2121 21.9189H11.2175L15.351 17.9218ZM9.20414 23.5305H37.3994V25.1681H3.28326L2.70492 23.5305H9.20414Z" fill="white"/>
<path d="M15.702 28.1172C14.9591 28.1172 14.2463 28.4125 13.7209 28.9383C13.1955 29.4642 12.9008 30.177 12.9014 30.9199C12.9019 31.6633 13.1978 32.3756 13.7241 32.9005C14.2499 33.4257 14.9634 33.72 15.7062 33.7184C16.4497 33.7173 17.1619 33.4209 17.6862 32.8946C18.211 32.3677 18.5047 31.6548 18.5031 30.9114C18.501 30.1696 18.2051 29.4588 17.6803 28.9352C17.1551 28.4115 16.4438 28.1173 15.702 28.1173L15.702 28.1172ZM15.702 32.088V32.0874C15.2266 32.0874 14.7978 31.8012 14.6156 31.3617C14.4333 30.9221 14.5341 30.4162 14.8707 30.0795C15.2068 29.7435 15.7128 29.6427 16.1523 29.8249C16.5918 30.0066 16.8786 30.4354 16.8786 30.9114C16.8786 31.2234 16.7542 31.5225 16.5339 31.7433C16.3131 31.9636 16.014 32.0874 15.702 32.0874V32.088Z" fill="white"/>
<path d="M27.0487 28.1172C26.3058 28.1172 25.593 28.4125 25.0676 28.9383C24.5422 29.4642 24.2475 30.177 24.248 30.9199C24.2486 31.6633 24.5445 32.3756 25.0708 32.9005C25.5966 33.4257 26.31 33.72 27.0529 33.7184C27.7963 33.7173 28.5086 33.4209 29.0329 32.8946C29.5577 32.3677 29.8514 31.6548 29.8498 30.9114C29.8477 30.1696 29.5518 29.4588 29.027 28.9352C28.5018 28.4115 27.7905 28.1173 27.0486 28.1173L27.0487 28.1172ZM27.0487 32.088V32.0874C26.5733 32.0874 26.1445 31.8012 25.9623 31.3617C25.78 30.9221 25.8808 30.4162 26.2174 30.0795C26.5535 29.7435 27.0594 29.6427 27.499 29.8249C27.9385 30.0066 28.2252 30.4354 28.2252 30.9114C28.2252 31.2234 28.1009 31.5225 27.8806 31.7433C27.6598 31.9636 27.3607 32.0874 27.0487 32.0874V32.088Z" fill="white"/>
<path d="M38.4469 28.1172C37.704 28.1172 36.9912 28.4125 36.4658 28.9383C35.9404 29.4642 35.6457 30.177 35.6462 30.9199C35.6468 31.6633 35.9427 32.3756 36.469 32.9005C36.9948 33.4257 37.7082 33.72 38.4511 33.7184C39.1945 33.7173 39.9068 33.4209 40.4311 32.8946C40.9559 32.3677 41.2496 31.6548 41.2475 30.9114C41.2458 30.1696 40.95 29.4588 40.4252 28.9352C39.8999 28.4115 39.1887 28.1173 38.4468 28.1173L38.4469 28.1172ZM38.4469 32.088V32.0874C37.9715 32.0874 37.5421 31.8012 37.3604 31.3617C37.1782 30.9221 37.279 30.4162 37.615 30.0795C37.9517 29.7435 38.4576 29.6427 38.8972 29.8249C39.3367 30.0066 39.6235 30.4354 39.6235 30.9114C39.6235 31.2234 39.4991 31.5225 39.2788 31.7433C39.058 31.9636 38.7589 32.0874 38.4469 32.0874L38.4469 32.088Z" fill="white"/>
<path d="M49.792 33.7126C50.5354 33.7147 51.2488 33.421 51.7752 32.8962C52.3015 32.3715 52.5979 31.6597 52.599 30.9162C52.6006 30.1733 52.3064 29.4599 51.7811 28.9336C51.2563 28.4077 50.544 28.1119 49.8005 28.1113C49.0576 28.1108 48.3448 28.4056 47.819 28.9309C47.2931 29.4562 46.9978 30.1685 46.9978 30.912C46.9978 31.6538 47.2921 32.3651 47.8157 32.8904C48.3394 33.4151 49.0501 33.711 49.7919 33.7126L49.792 33.7126ZM49.792 29.7418V29.7423C50.269 29.7396 50.7 30.0253 50.8838 30.4654C51.0677 30.9054 50.9674 31.413 50.6303 31.7502C50.2932 32.0873 49.7856 32.1876 49.3455 32.0037C48.9054 31.8199 48.6197 31.3889 48.6224 30.9119C48.6171 30.5978 48.7377 30.2944 48.9574 30.0698C49.1772 29.8452 49.4779 29.7177 49.792 29.7161L49.792 29.7418Z" fill="white"/>
</svg>

