<svg width="60" height="40" viewBox="0 0 60 40" fill="none" xmlns="http://www.w3.org/2000/svg">
<path d="M54.2369 15.9103L54.3566 16.2394C55.2261 18.6292 56.0886 21.0256 56.9459 23.4222L57.2456 24.2599L56.3743 24.0804C56.1272 24.0295 55.8673 23.9765 55.6011 23.9222C55.2353 23.8477 54.8575 23.7707 54.4849 23.6933L54.2369 15.9103ZM54.2369 15.9103L53.8867 15.9103L48.8592 15.9108L48.3587 15.9108L48.3592 16.4113L48.364 21.4337L54.2369 15.9103ZM53.912 14.9626H53.1732H47.8847C47.6237 14.9626 47.4107 15.1761 47.4106 15.4365C47.4106 15.4365 47.4106 15.4366 47.4106 15.4366C47.4106 15.4366 47.4106 15.4367 47.4106 15.4367L47.413 21.4369C47.413 21.4373 47.413 21.4376 47.413 21.438C47.4153 22.0672 47.5803 22.5352 47.858 22.8729C48.1362 23.2112 48.5678 23.4675 49.1923 23.5984L49.1935 23.5986C49.6051 23.6859 50.0162 23.7652 50.4311 23.8454C50.53 23.8645 50.6292 23.8836 50.7287 23.9029C50.7296 23.9031 50.7304 23.9033 50.7313 23.9035L51.0182 23.956L51.0246 23.9571L51.0246 23.9572C51.733 24.0965 53.0035 24.3547 54.294 24.6203L54.2941 24.6203C55.3582 24.8396 56.4376 25.0606 57.2419 25.2213L57.644 25.3016V25.7116L57.644 25.7604L57.644 25.7627L57.6512 27.3747V27.3747C57.656 28.4895 57.656 28.6786 57.6488 30.7773C57.6488 30.7775 57.6488 30.7776 57.6488 30.7777L53.912 14.9626ZM53.912 14.9626L53.6374 14.2767L53.912 14.9626ZM42.2642 34.1221H41.851H38.61H38.11V33.6221V21.443L38.1105 11.2708L38.1105 10.7708L38.6105 10.7708L40.2217 10.7708C42.9609 10.7636 45.706 10.7612 48.4467 10.7756C48.4469 10.7756 48.4472 10.7756 48.4474 10.7756L48.4448 11.2756L42.2642 34.1221ZM42.2642 34.1221L42.3421 33.7163M42.2642 34.1221L42.3421 33.7163M42.3421 33.7163C42.7456 31.6123 44.6031 30.0126 46.8266 30.0121L42.3421 33.7163ZM47.3058 38.2355H46.8644C45.879 38.2355 44.9519 37.8553 44.2619 37.1598L44.2618 37.1598C43.5732 36.4655 43.1961 35.539 43.2015 34.5507C43.2015 34.5505 43.2015 34.5503 43.2015 34.5501L43.7015 34.5529L47.3058 38.2355ZM47.3058 38.2355L47.3093 38.2077M47.3058 38.2355L47.3093 38.2077M47.3093 38.2077C49.0881 37.986 50.4637 36.4657 50.4709 34.6329V34.6309C50.4709 34.6035 50.4688 34.5786 50.4658 34.5568L47.3093 38.2077ZM51.8267 35.0731H51.7741L51.7226 35.0841L51.7217 35.0843L51.3973 35.1533L51.3348 35.479C50.9309 37.5825 49.084 39.179 46.8699 39.1834H46.8636C45.6207 39.1834 44.4577 38.7002 43.5879 37.8286C42.9394 37.1757 42.5119 36.3641 42.3386 35.4774L42.2596 35.0733H41.8479H17.5729H17.1561L17.0811 35.4833C16.6638 37.764 14.6648 39.5 12.2676 39.5C9.87048 39.5 7.87429 37.7666 7.4564 35.4833L7.38135 35.0733L6.96452 35.0733L1.89291 35.0738C1.64554 35.0738 1.43403 34.8758 1.42054 34.6203C1.38321 33.8813 1.39646 31.8685 1.40841 30.052L1.40914 29.9424L1.40914 29.9414L1.41879 27.8134V27.8111C1.41879 27.5507 1.63178 27.337 1.8929 27.337H2.20187H2.70187V26.837V2.43749C2.70187 1.37058 3.57222 0.5 4.64651 0.5H35.1799C36.2729 0.5 37.0093 0.699596 37.4609 1.02019C37.882 1.31912 38.1131 1.76417 38.1131 2.43749V7.78926C38.1093 7.81219 38.1059 7.8422 38.1059 7.87691C38.1059 7.91074 38.1091 7.9406 38.1131 7.96538V9.32336V9.82336H38.6131L40.2225 9.82336L40.2234 9.82336C42.9672 9.81854 45.7101 9.81613 48.4504 9.82576H48.4505C51.1871 9.83471 53.6559 11.5563 54.591 14.1045C55.8758 17.6131 57.1343 21.1317 58.3935 24.6523L58.4148 24.7118L58.4233 24.7356L58.426 24.7412L58.4271 24.7443C58.5319 25.0361 58.5903 25.3786 58.5948 25.7601C58.5948 25.7607 58.5948 25.7612 58.5948 25.7618L58.5996 27.3719L58.5996 27.3725C58.6 27.4703 58.6004 27.5609 58.6008 27.6462C58.6048 28.5387 58.6062 28.8609 58.5996 30.7798C58.5952 32.0981 58.1511 33.1633 57.4145 33.8978C56.6778 34.6323 55.6114 35.0731 54.2931 35.0731H51.8267ZM54.3705 23.6697L54.4841 23.6932L49.4921 22.1813L49.3883 22.6704C49.3886 22.6704 49.3889 22.6705 49.3892 22.6706C49.8985 22.7787 50.4063 22.8768 50.9087 22.9719L51.2026 23.0277C51.8933 23.1592 53.1084 23.4096 54.3705 23.6697ZM3.65238 2.43717V2.43718L3.65284 26.8369L3.65285 27.3369H4.15284H36.6605H37.1605V26.8369V10.3333V10.3332L37.16 7.96652C37.1638 7.94359 37.1672 7.91361 37.1672 7.87893C37.1672 7.8451 37.1641 7.81524 37.16 7.79046V2.43717C37.16 2.43473 37.16 2.43187 37.16 2.4286C37.1604 2.37819 37.1614 2.23224 37.098 2.08077C37.0212 1.89719 36.8802 1.76307 36.7044 1.67211C36.4003 1.51487 35.9178 1.45035 35.1773 1.45035H4.64642C4.1047 1.45035 3.65238 1.88634 3.65238 2.43717ZM37.1452 8.03209C37.145 8.03275 37.1449 8.03295 37.145 8.03251L37.1452 8.03209ZM37.1432 7.71809C37.1435 7.719 37.1441 7.72099 37.1447 7.72325L37.1433 7.71835C37.143 7.71734 37.143 7.71738 37.1432 7.71809ZM2.86201 28.2872H2.3651L2.36202 28.7841L2.3561 29.7395L2.35452 29.9499C2.34489 31.229 2.33471 32.6463 2.34489 33.6283L2.35002 34.1231H2.84486H6.96455H7.3809L7.45629 33.7137C7.87646 31.4316 9.87306 29.6964 12.2699 29.6964C14.6669 29.6964 16.6634 31.4298 17.0835 33.7136L17.1589 34.1231L17.5753 34.1231L36.6603 34.1226L37.1603 34.1226V33.6226V28.7872V28.2872H36.6603H2.86201ZM50.4422 34.4571C50.4413 34.4545 50.4425 34.458 50.4438 34.4621L50.4422 34.4571ZM8.31524 34.5992C8.31524 36.7791 10.0877 38.5517 12.2677 38.5517C14.4499 38.5517 16.2227 36.78 16.2227 34.5992C16.2227 32.4188 14.4474 30.6467 12.2677 30.6467C10.0878 30.6467 8.31524 32.4191 8.31524 34.5992Z" fill="white" stroke="white"/>
</svg>
