<svg width="46" height="44" viewBox="0 0 46 44" fill="none" xmlns="http://www.w3.org/2000/svg">
<path d="M41.091 41.5534V17.9675C41.5311 18.2223 42.0304 18.3583 42.5384 18.3583C43.5557 18.3583 44.5111 17.8139 45.0283 16.9399C45.4221 16.2756 45.5333 15.4971 45.3423 14.7472C45.1513 13.9974 44.6788 13.3675 44.0168 12.9752L24.7166 1.46413C23.6792 0.845291 22.3215 0.845291 21.2843 1.46413L1.98618 12.9732C1.32188 13.367 0.850134 13.997 0.658365 14.7468C0.465834 15.4967 0.578146 16.2752 0.971601 16.9387C1.49036 17.8143 2.44493 18.3579 3.46264 18.3579C3.96994 18.3579 4.46843 18.2219 4.90927 17.9679L4.90889 28.527H4.18539C2.98862 28.527 2.01452 29.5011 2.01452 30.6979V40.8291C2.01452 41.0839 2.06647 41.3257 2.14784 41.5526H0.567135V43H45.4329V41.5526L41.091 41.5534ZM2.21698 16.2014C2.02025 15.8706 1.96448 15.4813 2.06073 15.1058C2.15699 14.7303 2.3923 14.4156 2.72656 14.2173L22.0267 2.70725C22.6142 2.35543 23.3862 2.35543 23.9749 2.70725L43.277 14.2183C43.6089 14.4143 43.8442 14.7298 43.9405 15.1053C44.036 15.4808 43.981 15.8693 43.7835 16.2016C43.3919 16.861 42.4621 17.1005 41.802 16.7089L24.7169 6.52785C24.1981 6.21958 23.6053 6.05608 23.0017 6.05608C22.3982 6.05608 21.805 6.21958 21.2862 6.52785L4.202 16.7079C3.53847 17.1029 2.60908 16.8623 2.21752 16.2006L2.21698 16.2014ZM6.35707 17.109L22.0262 7.77257C22.6145 7.42151 23.3857 7.41998 23.9756 7.77257L39.6447 17.1082V41.5538H36.7503V19.8063H9.25229V28.5279H6.35786L6.35707 17.109ZM23.0002 32.8697H19.3819V30.6988C19.3819 29.7568 18.7749 28.9608 17.9345 28.6612L17.9349 26.3571C17.9349 25.9575 18.2592 25.6336 18.6584 25.6336H20.8293V28.528H25.171V25.6336H27.3419C27.7414 25.6336 28.0654 25.9579 28.0654 26.3571V32.1462C28.0654 32.5458 27.7411 32.8697 27.3419 32.8697L23.0002 32.8697ZM22.2767 25.6335H23.7241V27.0809H22.2767V25.6335ZM29.5129 34.3171H30.9603V35.7645H29.5129V34.3171ZM29.3799 32.8697C29.4609 32.6424 29.5129 32.4006 29.5129 32.1462V26.357C29.5129 25.1603 28.5388 24.1862 27.342 24.1862H18.6584C17.4616 24.1862 16.4875 25.1602 16.4875 26.357V28.5279H10.6984V25.5946H35.3017V33.0029C35.0748 32.9219 34.833 32.87 34.5786 32.87L29.3799 32.8697ZM35.3021 24.148H10.6987V21.2536H35.3021V24.148ZM9.25143 29.9757H12.1459V32.8702H9.25143V29.9757ZM4.18612 41.5533C3.78656 41.5533 3.46262 41.229 3.46262 40.8298V30.6986C3.46262 30.299 3.78694 29.9751 4.18612 29.9751H7.80441V34.3168H13.5936V29.9751H17.2118C17.6114 29.9751 17.9353 30.2994 17.9353 30.6986V40.8298C17.9353 41.2293 17.611 41.5533 17.2118 41.5533H4.18612ZM19.2489 41.5533C19.3299 41.326 19.3823 41.0842 19.3823 40.8294V34.3167H23.0005C23.4001 34.3167 23.724 34.641 23.724 35.0402V40.8293C23.724 41.2289 23.3997 41.5528 23.0005 41.5528L19.2489 41.5533ZM25.8949 41.5533C25.4954 41.5533 25.1714 41.229 25.1714 40.8298V35.0406C25.1714 34.641 25.4958 34.3171 25.8949 34.3171H28.0658V37.2115H32.4076V34.3171H34.5784C34.978 34.3171 35.3019 34.6414 35.3019 35.0406V40.8298C35.3019 41.2293 34.9776 41.5533 34.5784 41.5533H25.8949Z" fill="white" stroke="white" stroke-width="0.3"/>
<path d="M12.1467 41.5146H13.5941V42.9621H12.1467V41.5146Z" fill="white" stroke="white" stroke-width="0.3"/>
<path d="M9.25195 41.5146H10.6994V42.9621H9.25195V41.5146Z" fill="white" stroke="white" stroke-width="0.3"/>
<path d="M15.0413 41.5146H16.4887V42.9621H15.0413V41.5146Z" fill="white" stroke="white" stroke-width="0.3"/>
</svg>
