<svg width="80" height="80" viewBox="0 0 80 80" fill="none" xmlns="http://www.w3.org/2000/svg">
<path d="M40 4.99987C59.2508 4.99987 74.9998 20.7495 74.9998 39.9997C74.9998 59.2498 59.2501 74.9995 40 74.9995C20.7509 74.9995 5.00021 59.2498 5.00021 39.9997C5.00021 20.7505 20.7505 4.99987 40 4.99987ZM40 0C17.8758 0 0 17.8758 0 40C0 62.1259 17.8758 80 40 80C62.1259 80 80 62.1242 80 40C80.0007 17.8758 62.1259 0 40 0Z" fill="white"/>
<path d="M31.2496 29.376C31.2496 32.8278 28.4519 35.6256 24.9993 35.6256C21.5475 35.6256 18.7498 32.8278 18.7498 29.376C18.7498 25.9242 21.5475 23.1257 24.9993 23.1257C28.4519 23.1257 31.2496 25.9242 31.2496 29.376Z" fill="white"/>
<path d="M61.2508 29.376C61.2508 32.8278 58.4524 35.6256 55.0006 35.6256C51.5487 35.6256 48.751 32.8278 48.751 29.376C48.751 25.9242 51.5487 23.1257 55.0006 23.1257C58.4524 23.1257 61.2508 25.9242 61.2508 29.376Z" fill="white"/>
<path d="M58.1251 46.7498C54.8752 53.4995 48 58.1245 40 58.1245C32 58.1245 25.125 53.4995 21.875 46.7498" stroke="white" stroke-width="6" stroke-miterlimit="10" stroke-linecap="round"/>
</svg>
