<svg width="85" height="85" viewBox="0 0 85 85" fill="none" xmlns="http://www.w3.org/2000/svg">
<mask id="path-1-inside-1_403_10468" fill="white">
<path d="M57.4566 43.1389C57.3656 42.774 57.2746 42.5002 57.1828 42.3182V42.2271C57.0918 41.9533 56.909 41.7713 56.8179 41.4975V41.4064C56.6359 41.2244 56.4531 40.9506 56.2711 40.7678L56.089 40.5857C56.2711 40.0389 56.4539 39.4002 56.4539 38.8533C56.4539 36.6643 54.9035 34.7491 52.8063 34.2931C52.5324 32.7427 51.5297 31.3744 50.0703 30.7364C49.3406 29.095 47.6993 28.0916 45.8751 28.0916C44.5985 28.0916 43.413 28.6384 42.5914 29.4599C41.7707 28.6392 40.5852 28.0916 39.3078 28.0916C37.4836 28.0916 35.8422 29.1861 35.1125 30.7364C33.6532 31.3751 32.6505 32.7427 32.3766 34.2931C30.2793 34.749 28.729 36.5732 28.729 38.8533C28.729 39.492 28.8201 40.0388 29.0939 40.5857L28.9118 40.7678C28.7298 40.9498 28.547 41.1326 28.3649 41.4064V41.4975C28.1829 41.7713 28.0911 41.9533 28.0001 42.2271V42.3182C27.9091 42.592 27.8181 42.8651 27.7263 43.1389V43.2299C27.6353 43.5037 27.6353 43.8686 27.6353 44.1416C27.6353 45.1451 28.0001 46.1479 28.6388 46.9687C28.2739 47.6073 28.1829 48.337 28.1829 49.066C28.1829 51.1634 29.5512 52.9874 31.4665 53.5351C31.5575 53.6261 31.6486 53.8089 31.7403 53.9C31.7403 53.991 31.8314 53.991 31.8314 54.082C32.0134 54.264 32.1052 54.4468 32.2872 54.6289L32.4693 54.8109C32.5603 54.902 32.7431 55.0848 32.8341 55.1758C32.9251 55.2668 33.0161 55.2668 33.1079 55.3578C33.29 55.4488 33.5638 55.6316 33.7466 55.7226C33.8376 55.7226 33.9286 55.8137 33.9286 55.8137C34.1107 55.9047 34.2935 55.9047 34.4755 55.9957C34.5665 55.9957 34.6576 55.9957 34.7493 56.0867C35.0232 56.1778 35.2962 56.1778 35.57 56.1778C35.8439 56.1778 36.2087 56.1778 36.4818 56.0867C37.3025 56.7254 38.306 57.0902 39.4005 57.0902C40.677 57.0902 41.8625 56.5433 42.6841 55.7219C43.5048 56.5426 44.6903 57.0902 45.9677 57.0902C47.0622 57.0902 48.065 56.7254 48.8864 56.0867C49.1602 56.1778 49.525 56.1778 49.7981 56.1778C50.0719 56.1778 50.345 56.1778 50.6188 56.0867C50.7098 56.0867 50.8009 56.0867 50.8926 55.9957C51.0747 55.9047 51.2575 55.9047 51.4395 55.8137C51.5305 55.8137 51.6216 55.7226 51.6216 55.7226C51.8954 55.6316 52.0774 55.5406 52.2602 55.3578C52.3512 55.2668 52.4423 55.2668 52.534 55.1758C52.7161 55.0847 52.8079 54.9937 52.8989 54.8109L53.0809 54.6289C53.263 54.4468 53.4458 54.264 53.5368 54.082C53.5368 53.991 53.6278 53.991 53.6278 53.9C53.7188 53.8089 53.8099 53.6261 53.9016 53.5351C55.8169 52.9882 57.1853 51.1641 57.1853 49.066C57.1853 48.3363 57.0032 47.6066 56.7294 46.9687C57.3681 46.148 57.7329 45.1444 57.7329 44.1416C57.5478 43.7775 57.5478 43.4127 57.4568 43.1389L57.4566 43.1389ZM39.2167 54.1745C38.6699 54.1745 38.1222 53.9006 37.7574 53.4448C37.4835 53.1709 37.1187 52.9889 36.6628 52.9889C36.4808 52.9889 36.298 52.9889 36.116 53.0799C35.8421 53.1709 35.6601 53.262 35.3863 53.262H35.0214H34.9304C34.8394 53.262 34.7484 53.262 34.7484 53.1709C34.6573 53.1709 34.6573 53.1709 34.5663 53.0799C34.4753 53.0799 34.4753 52.9889 34.3843 52.9889L34.2933 52.8979C34.2022 52.8979 34.2022 52.8069 34.1112 52.8069L34.0202 52.7158C33.9292 52.6248 33.8381 52.5338 33.8381 52.442C33.8381 52.442 33.8381 52.351 33.7471 52.351C33.7471 52.26 33.6561 52.26 33.6561 52.1689C33.6561 52.0779 33.6561 52.0779 33.5651 51.9869C33.4741 51.8049 33.4741 51.531 33.4741 51.3482C33.4741 50.2537 34.2948 49.433 35.3893 49.433C36.119 49.433 36.7576 48.7943 36.7576 48.0647C36.7576 47.335 36.119 46.6963 35.3893 46.6963C33.2919 46.6963 31.5587 48.0647 30.9202 49.9799C30.7381 49.7061 30.6463 49.3413 30.6463 48.9764C30.6463 48.5206 30.8284 47.9729 31.1932 47.6999C31.467 47.426 31.5581 47.0612 31.5581 46.6053C31.5581 46.2405 31.2842 45.8756 31.0112 45.6018C30.4643 45.237 30.1905 44.6901 30.1905 44.0514C30.1905 43.8694 30.1905 43.6866 30.2815 43.5956V43.5046C30.3725 43.3225 30.3725 43.2307 30.4635 43.1397C30.5546 43.0487 30.6456 42.8659 30.7374 42.7749L30.8284 42.6839C30.9194 42.5928 31.1022 42.5018 31.1932 42.41C31.4671 42.319 31.7401 42.228 32.0139 42.228C33.1085 42.228 33.9292 43.0487 33.9292 44.1432C33.9292 44.8729 34.5678 45.5116 35.2975 45.5116C36.0272 45.5116 36.6659 44.8729 36.6659 44.1432C36.6659 41.5893 34.5685 39.4921 32.0148 39.4921C31.8327 39.4921 31.5589 39.4921 31.3761 39.5831C31.2851 39.4011 31.2851 39.2183 31.2851 39.0363C31.2851 38.2156 31.832 37.4859 32.6534 37.212C33.3831 38.7624 35.0244 39.8569 36.8487 39.8569C37.5784 39.8569 38.2171 39.2182 38.2171 38.4885C38.2171 37.7588 37.5784 37.1202 36.8487 37.1202C35.7542 37.1202 34.9335 36.2995 34.9335 35.205C34.9335 34.2932 35.4804 33.5636 36.3928 33.3807C36.8487 33.2897 37.2135 32.9249 37.3963 32.469C37.6702 31.6483 38.3998 31.1007 39.2205 31.1007C40.0413 31.1007 40.7709 31.6475 41.0448 32.469C39.2206 33.1077 37.853 34.84 37.853 36.8463C37.853 37.576 38.4917 38.2146 39.2214 38.2146C39.951 38.2146 40.5897 37.576 40.5897 36.8463C40.5897 36.2994 40.7718 35.8428 41.1366 35.4779V48.8845C40.7717 48.5197 40.5897 48.0638 40.5897 47.5161C40.5897 46.7865 39.951 46.1478 39.2214 46.1478C38.4917 46.1478 37.853 46.7865 37.853 47.5161C37.853 49.6135 39.2214 51.3467 41.1366 51.8934V52.4403C41.1321 53.3535 40.2196 54.1742 39.2169 54.1742L39.2167 54.1745ZM53.991 45.601C53.7172 45.8748 53.4441 46.1486 53.4441 46.6045C53.4441 46.9693 53.5351 47.4252 53.809 47.699C54.1738 48.0638 54.3558 48.5197 54.3558 48.9756C54.3558 49.3404 54.2648 49.7052 54.082 49.9791C53.5351 48.0638 51.711 46.6954 49.6129 46.6954C48.8832 46.6954 48.2445 47.3341 48.2445 48.0638C48.2445 48.7935 48.8832 49.4321 49.6129 49.4321C50.7074 49.4321 51.5281 50.2528 51.5281 51.3474C51.5281 51.5294 51.4371 51.8032 51.4371 51.986C51.4371 52.077 51.4371 52.077 51.3461 52.1681C51.3461 52.2591 51.2551 52.2591 51.2551 52.3501C51.2551 52.3501 51.2551 52.4411 51.164 52.4411C51.073 52.5322 51.073 52.6232 50.982 52.715L50.891 52.806C50.7999 52.806 50.7999 52.897 50.7089 52.897L50.6179 52.988C50.5269 52.988 50.5269 53.0791 50.4359 53.0791C50.4359 53.0791 50.3448 53.0791 50.2538 53.1701C50.1628 53.1701 50.0718 53.2611 50.0718 53.2611H49.9807H49.6159C49.3421 53.2611 49.069 53.1701 48.8862 53.0791C48.3393 52.8052 47.7007 52.988 47.3358 53.4439C46.971 53.8998 46.4241 54.1736 45.8765 54.1736C44.7819 54.1736 43.9612 53.3529 43.9612 52.2584V46.6954C45.8765 46.1485 47.2448 44.3244 47.2448 42.3181C47.2448 41.5885 46.6062 40.9498 45.8765 40.9498C45.1468 40.9498 44.5081 41.5885 44.5081 42.3181C44.5081 42.865 44.3261 43.3216 43.9613 43.6865L43.959 32.742C43.959 31.6475 44.7797 30.8268 45.8742 30.8268C46.6949 30.8268 47.5156 31.3736 47.6985 32.1951C47.7895 32.651 48.2453 33.0158 48.702 33.1068C49.5227 33.2889 50.1613 34.1103 50.1613 34.9311C50.1613 36.0256 49.3406 36.8463 48.2461 36.8463C47.5164 36.8463 46.8777 37.485 46.8777 38.2146C46.8777 38.9443 47.5164 39.583 48.2461 39.583C50.0703 39.583 51.6206 38.4885 52.4414 36.9382C53.1711 37.212 53.8097 37.9417 53.8097 38.7624C53.8097 38.9444 53.8097 39.1272 53.7187 39.3092C53.5366 39.3092 53.2628 39.2182 53.08 39.2182C50.5261 39.2182 48.4289 41.3156 48.4289 43.8693C48.4289 44.599 49.0676 45.2377 49.7973 45.2377C50.527 45.2377 51.1656 44.599 51.1656 43.8693C51.1656 42.7748 51.9863 41.9541 53.0809 41.9541C53.3547 41.9541 53.6277 42.0451 53.9016 42.1361C54.0836 42.2272 54.1754 42.3182 54.2664 42.41L54.3574 42.501C54.4484 42.592 54.6312 42.683 54.6312 42.8658C54.7223 42.9569 54.8133 43.1397 54.8133 43.2307V43.3217C54.8133 43.5037 54.9043 43.6865 54.9043 43.7776C54.8118 44.6893 54.5387 45.2362 53.9911 45.601L53.991 45.601Z"/>
</mask>
<path d="M57.4566 43.1389C57.3656 42.774 57.2746 42.5002 57.1828 42.3182V42.2271C57.0918 41.9533 56.909 41.7713 56.8179 41.4975V41.4064C56.6359 41.2244 56.4531 40.9506 56.2711 40.7678L56.089 40.5857C56.2711 40.0389 56.4539 39.4002 56.4539 38.8533C56.4539 36.6643 54.9035 34.7491 52.8063 34.2931C52.5324 32.7427 51.5297 31.3744 50.0703 30.7364C49.3406 29.095 47.6993 28.0916 45.8751 28.0916C44.5985 28.0916 43.413 28.6384 42.5914 29.4599C41.7707 28.6392 40.5852 28.0916 39.3078 28.0916C37.4836 28.0916 35.8422 29.1861 35.1125 30.7364C33.6532 31.3751 32.6505 32.7427 32.3766 34.2931C30.2793 34.749 28.729 36.5732 28.729 38.8533C28.729 39.492 28.8201 40.0388 29.0939 40.5857L28.9118 40.7678C28.7298 40.9498 28.547 41.1326 28.3649 41.4064V41.4975C28.1829 41.7713 28.0911 41.9533 28.0001 42.2271V42.3182C27.9091 42.592 27.8181 42.8651 27.7263 43.1389V43.2299C27.6353 43.5037 27.6353 43.8686 27.6353 44.1416C27.6353 45.1451 28.0001 46.1479 28.6388 46.9687C28.2739 47.6073 28.1829 48.337 28.1829 49.066C28.1829 51.1634 29.5512 52.9874 31.4665 53.5351C31.5575 53.6261 31.6486 53.8089 31.7403 53.9C31.7403 53.991 31.8314 53.991 31.8314 54.082C32.0134 54.264 32.1052 54.4468 32.2872 54.6289L32.4693 54.8109C32.5603 54.902 32.7431 55.0848 32.8341 55.1758C32.9251 55.2668 33.0161 55.2668 33.1079 55.3578C33.29 55.4488 33.5638 55.6316 33.7466 55.7226C33.8376 55.7226 33.9286 55.8137 33.9286 55.8137C34.1107 55.9047 34.2935 55.9047 34.4755 55.9957C34.5665 55.9957 34.6576 55.9957 34.7493 56.0867C35.0232 56.1778 35.2962 56.1778 35.57 56.1778C35.8439 56.1778 36.2087 56.1778 36.4818 56.0867C37.3025 56.7254 38.306 57.0902 39.4005 57.0902C40.677 57.0902 41.8625 56.5433 42.6841 55.7219C43.5048 56.5426 44.6903 57.0902 45.9677 57.0902C47.0622 57.0902 48.065 56.7254 48.8864 56.0867C49.1602 56.1778 49.525 56.1778 49.7981 56.1778C50.0719 56.1778 50.345 56.1778 50.6188 56.0867C50.7098 56.0867 50.8009 56.0867 50.8926 55.9957C51.0747 55.9047 51.2575 55.9047 51.4395 55.8137C51.5305 55.8137 51.6216 55.7226 51.6216 55.7226C51.8954 55.6316 52.0774 55.5406 52.2602 55.3578C52.3512 55.2668 52.4423 55.2668 52.534 55.1758C52.7161 55.0847 52.8079 54.9937 52.8989 54.8109L53.0809 54.6289C53.263 54.4468 53.4458 54.264 53.5368 54.082C53.5368 53.991 53.6278 53.991 53.6278 53.9C53.7188 53.8089 53.8099 53.6261 53.9016 53.5351C55.8169 52.9882 57.1853 51.1641 57.1853 49.066C57.1853 48.3363 57.0032 47.6066 56.7294 46.9687C57.3681 46.148 57.7329 45.1444 57.7329 44.1416C57.5478 43.7775 57.5478 43.4127 57.4568 43.1389L57.4566 43.1389ZM39.2167 54.1745C38.6699 54.1745 38.1222 53.9006 37.7574 53.4448C37.4835 53.1709 37.1187 52.9889 36.6628 52.9889C36.4808 52.9889 36.298 52.9889 36.116 53.0799C35.8421 53.1709 35.6601 53.262 35.3863 53.262H35.0214H34.9304C34.8394 53.262 34.7484 53.262 34.7484 53.1709C34.6573 53.1709 34.6573 53.1709 34.5663 53.0799C34.4753 53.0799 34.4753 52.9889 34.3843 52.9889L34.2933 52.8979C34.2022 52.8979 34.2022 52.8069 34.1112 52.8069L34.0202 52.7158C33.9292 52.6248 33.8381 52.5338 33.8381 52.442C33.8381 52.442 33.8381 52.351 33.7471 52.351C33.7471 52.26 33.6561 52.26 33.6561 52.1689C33.6561 52.0779 33.6561 52.0779 33.5651 51.9869C33.4741 51.8049 33.4741 51.531 33.4741 51.3482C33.4741 50.2537 34.2948 49.433 35.3893 49.433C36.119 49.433 36.7576 48.7943 36.7576 48.0647C36.7576 47.335 36.119 46.6963 35.3893 46.6963C33.2919 46.6963 31.5587 48.0647 30.9202 49.9799C30.7381 49.7061 30.6463 49.3413 30.6463 48.9764C30.6463 48.5206 30.8284 47.9729 31.1932 47.6999C31.467 47.426 31.5581 47.0612 31.5581 46.6053C31.5581 46.2405 31.2842 45.8756 31.0112 45.6018C30.4643 45.237 30.1905 44.6901 30.1905 44.0514C30.1905 43.8694 30.1905 43.6866 30.2815 43.5956V43.5046C30.3725 43.3225 30.3725 43.2307 30.4635 43.1397C30.5546 43.0487 30.6456 42.8659 30.7374 42.7749L30.8284 42.6839C30.9194 42.5928 31.1022 42.5018 31.1932 42.41C31.4671 42.319 31.7401 42.228 32.0139 42.228C33.1085 42.228 33.9292 43.0487 33.9292 44.1432C33.9292 44.8729 34.5678 45.5116 35.2975 45.5116C36.0272 45.5116 36.6659 44.8729 36.6659 44.1432C36.6659 41.5893 34.5685 39.4921 32.0148 39.4921C31.8327 39.4921 31.5589 39.4921 31.3761 39.5831C31.2851 39.4011 31.2851 39.2183 31.2851 39.0363C31.2851 38.2156 31.832 37.4859 32.6534 37.212C33.3831 38.7624 35.0244 39.8569 36.8487 39.8569C37.5784 39.8569 38.2171 39.2182 38.2171 38.4885C38.2171 37.7588 37.5784 37.1202 36.8487 37.1202C35.7542 37.1202 34.9335 36.2995 34.9335 35.205C34.9335 34.2932 35.4804 33.5636 36.3928 33.3807C36.8487 33.2897 37.2135 32.9249 37.3963 32.469C37.6702 31.6483 38.3998 31.1007 39.2205 31.1007C40.0413 31.1007 40.7709 31.6475 41.0448 32.469C39.2206 33.1077 37.853 34.84 37.853 36.8463C37.853 37.576 38.4917 38.2146 39.2214 38.2146C39.951 38.2146 40.5897 37.576 40.5897 36.8463C40.5897 36.2994 40.7718 35.8428 41.1366 35.4779V48.8845C40.7717 48.5197 40.5897 48.0638 40.5897 47.5161C40.5897 46.7865 39.951 46.1478 39.2214 46.1478C38.4917 46.1478 37.853 46.7865 37.853 47.5161C37.853 49.6135 39.2214 51.3467 41.1366 51.8934V52.4403C41.1321 53.3535 40.2196 54.1742 39.2169 54.1742L39.2167 54.1745ZM53.991 45.601C53.7172 45.8748 53.4441 46.1486 53.4441 46.6045C53.4441 46.9693 53.5351 47.4252 53.809 47.699C54.1738 48.0638 54.3558 48.5197 54.3558 48.9756C54.3558 49.3404 54.2648 49.7052 54.082 49.9791C53.5351 48.0638 51.711 46.6954 49.6129 46.6954C48.8832 46.6954 48.2445 47.3341 48.2445 48.0638C48.2445 48.7935 48.8832 49.4321 49.6129 49.4321C50.7074 49.4321 51.5281 50.2528 51.5281 51.3474C51.5281 51.5294 51.4371 51.8032 51.4371 51.986C51.4371 52.077 51.4371 52.077 51.3461 52.1681C51.3461 52.2591 51.2551 52.2591 51.2551 52.3501C51.2551 52.3501 51.2551 52.4411 51.164 52.4411C51.073 52.5322 51.073 52.6232 50.982 52.715L50.891 52.806C50.7999 52.806 50.7999 52.897 50.7089 52.897L50.6179 52.988C50.5269 52.988 50.5269 53.0791 50.4359 53.0791C50.4359 53.0791 50.3448 53.0791 50.2538 53.1701C50.1628 53.1701 50.0718 53.2611 50.0718 53.2611H49.9807H49.6159C49.3421 53.2611 49.069 53.1701 48.8862 53.0791C48.3393 52.8052 47.7007 52.988 47.3358 53.4439C46.971 53.8998 46.4241 54.1736 45.8765 54.1736C44.7819 54.1736 43.9612 53.3529 43.9612 52.2584V46.6954C45.8765 46.1485 47.2448 44.3244 47.2448 42.3181C47.2448 41.5885 46.6062 40.9498 45.8765 40.9498C45.1468 40.9498 44.5081 41.5885 44.5081 42.3181C44.5081 42.865 44.3261 43.3216 43.9613 43.6865L43.959 32.742C43.959 31.6475 44.7797 30.8268 45.8742 30.8268C46.6949 30.8268 47.5156 31.3736 47.6985 32.1951C47.7895 32.651 48.2453 33.0158 48.702 33.1068C49.5227 33.2889 50.1613 34.1103 50.1613 34.9311C50.1613 36.0256 49.3406 36.8463 48.2461 36.8463C47.5164 36.8463 46.8777 37.485 46.8777 38.2146C46.8777 38.9443 47.5164 39.583 48.2461 39.583C50.0703 39.583 51.6206 38.4885 52.4414 36.9382C53.1711 37.212 53.8097 37.9417 53.8097 38.7624C53.8097 38.9444 53.8097 39.1272 53.7187 39.3092C53.5366 39.3092 53.2628 39.2182 53.08 39.2182C50.5261 39.2182 48.4289 41.3156 48.4289 43.8693C48.4289 44.599 49.0676 45.2377 49.7973 45.2377C50.527 45.2377 51.1656 44.599 51.1656 43.8693C51.1656 42.7748 51.9863 41.9541 53.0809 41.9541C53.3547 41.9541 53.6277 42.0451 53.9016 42.1361C54.0836 42.2272 54.1754 42.3182 54.2664 42.41L54.3574 42.501C54.4484 42.592 54.6312 42.683 54.6312 42.8658C54.7223 42.9569 54.8133 43.1397 54.8133 43.2307V43.3217C54.8133 43.5037 54.9043 43.6865 54.9043 43.7776C54.8118 44.6893 54.5387 45.2362 53.9911 45.601L53.991 45.601Z" fill="white" stroke="white" stroke-width="2" mask="url(#path-1-inside-1_403_10468)"/>
<mask id="path-2-inside-2_403_10468" fill="white">
<path d="M80.0749 37.6659C77.8858 37.6659 76.0623 39.1253 75.4238 41.1315H66.851C66.5772 35.3858 64.2062 30.1878 60.6495 26.1745L66.669 20.155C67.3987 20.5198 68.1284 20.7936 68.9491 20.7936C70.2257 20.7936 71.4112 20.2468 72.3237 19.3343C73.2354 18.4225 73.783 17.2369 73.783 15.9598C73.783 14.6832 73.2361 13.4977 72.3237 12.5852C71.4119 11.6735 70.2263 11.1259 68.9491 11.1259C67.6726 11.1259 66.4871 11.6728 65.5746 12.5852C64.6629 13.497 64.1153 14.6826 64.1153 15.9598C64.1153 16.7805 64.2973 17.5102 64.7539 18.2399L58.8255 24.2594C54.8129 20.7027 49.6142 18.4226 43.8685 18.0579V9.48515C45.8747 8.84649 47.334 7.02306 47.334 4.83405C47.334 2.18921 45.145 0 42.5 0C39.855 0 37.6659 2.18901 37.6659 4.83405C37.6659 7.02306 39.1253 8.84657 41.1316 9.48515V18.0579C35.3858 18.3317 30.1878 20.7027 26.1745 24.2594L20.155 18.2399C20.5198 17.5102 20.7936 16.7805 20.7936 15.9598C20.7936 14.6832 20.2468 13.4977 19.3343 12.5852C18.4225 11.6735 17.2369 11.1259 15.9598 11.1259C14.6832 11.1259 13.4977 11.6728 12.5852 12.5852C11.6735 13.497 11.1259 14.6826 11.1259 15.9598C11.1259 17.2363 11.6728 18.4219 12.5852 19.3343C13.497 20.246 14.6826 20.7936 15.9598 20.7936C16.7805 20.7936 17.5102 20.6116 18.2399 20.155L24.2594 26.1745C20.7027 30.1871 18.4226 35.3858 18.0579 41.1315H9.48515C8.84649 39.1253 7.02307 37.6659 4.83405 37.6659C2.18921 37.6659 0 39.855 0 42.5C0 45.145 2.18902 47.334 4.83405 47.334C7.02307 47.334 8.84657 45.8747 9.48515 43.8684H18.0579C18.3317 49.6142 20.7027 54.8122 24.2594 58.8255L18.2399 64.845C17.5102 64.4802 16.7805 64.2064 15.9598 64.2064C14.6832 64.2064 13.4977 64.7532 12.5852 65.6657C11.6735 66.5774 11.1259 67.7631 11.1259 69.0402C11.1259 70.3168 11.6728 71.5023 12.5852 72.4147C13.497 73.3265 14.6826 73.8741 15.9598 73.8741C17.2363 73.8741 18.4219 73.3272 19.3343 72.4147C20.246 71.503 20.7936 70.3174 20.7936 69.0402C20.7936 68.2195 20.6116 67.4898 20.155 66.7601L26.1745 60.7406C30.1871 64.2973 35.3858 66.5774 41.1316 66.9421V75.5148C39.1253 76.1535 37.6659 77.9769 37.6659 80.1659C37.6659 82.8108 39.855 85 42.5 85C45.145 85 47.334 82.811 47.334 80.1659C47.334 77.9769 45.8747 76.1534 43.8685 75.5148V66.9421C49.6142 66.6683 54.8122 64.2973 58.8255 60.7406L64.845 66.7601C64.4802 67.4898 64.2064 68.2195 64.2064 69.0402C64.2064 70.3168 64.7532 71.5023 65.6657 72.4147C66.5775 73.3265 67.7631 73.8741 69.0402 73.8741C70.3168 73.8741 71.5023 73.3272 72.4148 72.4147C73.3265 71.503 73.8741 70.3174 73.8741 69.0402C73.8741 67.7637 73.3272 66.5781 72.4148 65.6657C71.503 64.754 70.3174 64.2064 69.0402 64.2064C68.2195 64.2064 67.4898 64.3884 66.7601 64.845L60.7406 58.8247C64.2973 54.8122 66.5774 49.6134 66.9421 43.8677H75.5148C76.1535 45.8739 77.9769 47.3333 80.166 47.3333C82.8108 47.3333 85 45.1443 85 42.4992C85 39.8542 82.7199 37.6659 80.0751 37.6659H80.0749ZM67.5799 14.4085C67.9448 14.0437 68.4917 13.7698 69.0393 13.7698C69.5862 13.7698 70.1338 13.9519 70.4986 14.4085C71.3194 15.2292 71.3194 16.5975 70.4986 17.4183C69.6779 18.239 68.3096 18.239 67.58 17.4183C66.7593 16.5976 66.7593 15.23 67.58 14.4085H67.5799ZM40.4036 4.92412C40.4036 3.73858 41.3153 2.82677 42.5009 2.82677C43.6865 2.82677 44.5983 3.7385 44.5983 4.92412C44.5983 6.10974 43.6865 7.02147 42.5009 7.02147C41.3153 7.02147 40.4036 6.10974 40.4036 4.92412ZM14.4115 17.4183C13.5908 16.5976 13.5908 15.2293 14.4115 14.4085C14.7764 14.0437 15.3233 13.7698 15.8709 13.7698C16.4178 13.7698 16.9654 13.9519 17.3303 14.4085C18.151 15.2292 18.151 16.5975 17.3303 17.3272C16.6006 18.2389 15.2329 18.2389 14.4116 17.4182L14.4115 17.4183ZM4.92714 44.5966C3.7416 44.5966 2.82979 43.6848 2.82979 42.4992C2.82979 41.3136 3.74153 40.4019 4.92714 40.4019C6.11276 40.4019 7.02449 41.3136 7.02449 42.4992C7.02449 43.684 6.11276 44.5966 4.92714 44.5966ZM17.4213 70.5886C16.6006 71.4093 15.2323 71.4093 14.5026 70.5886C13.6819 69.7679 13.6819 68.3996 14.5026 67.5788C14.8675 67.214 15.4143 66.9402 15.962 66.9402C16.5089 66.9402 17.0565 67.1222 17.4213 67.5788C18.242 68.4003 18.242 69.7678 17.4213 70.5886H17.4213ZM44.5996 80.0738C44.5996 81.2593 43.6879 82.1711 42.5023 82.1711C41.3166 82.1711 40.4049 81.2594 40.4049 80.0738C40.4049 78.8881 41.3166 77.9764 42.5023 77.9764C43.687 77.9757 44.5996 78.8881 44.5996 80.0738ZM70.5916 67.5788C71.4123 68.3995 71.4123 69.7678 70.5916 70.5886C69.7709 71.4094 68.4026 71.4093 67.6729 70.5886C66.8522 69.7679 66.8522 68.3996 67.6729 67.6699C68.0378 67.3051 68.5847 67.0313 69.1323 67.0313C69.5889 66.941 70.1358 67.2148 70.5917 67.5789L70.5916 67.5788ZM42.5024 64.2049C30.5552 64.2049 20.7972 54.4467 20.7972 42.4996C20.7972 30.5516 30.5554 20.7943 42.5024 20.7943C54.4495 20.7943 64.2077 30.5526 64.2077 42.4996C64.2077 54.4467 54.4487 64.2049 42.5024 64.2049ZM80.0779 44.5968C78.8924 44.5968 77.9806 43.685 77.9806 42.4994C77.9806 41.3138 78.8923 40.4021 80.0779 40.4021C81.2636 40.4021 82.1753 41.3138 82.1753 42.4994C82.1753 43.6842 81.2636 44.5968 80.0779 44.5968Z"/>
</mask>
<path d="M80.0749 37.6659C77.8858 37.6659 76.0623 39.1253 75.4238 41.1315H66.851C66.5772 35.3858 64.2062 30.1878 60.6495 26.1745L66.669 20.155C67.3987 20.5198 68.1284 20.7936 68.9491 20.7936C70.2257 20.7936 71.4112 20.2468 72.3237 19.3343C73.2354 18.4225 73.783 17.2369 73.783 15.9598C73.783 14.6832 73.2361 13.4977 72.3237 12.5852C71.4119 11.6735 70.2263 11.1259 68.9491 11.1259C67.6726 11.1259 66.4871 11.6728 65.5746 12.5852C64.6629 13.497 64.1153 14.6826 64.1153 15.9598C64.1153 16.7805 64.2973 17.5102 64.7539 18.2399L58.8255 24.2594C54.8129 20.7027 49.6142 18.4226 43.8685 18.0579V9.48515C45.8747 8.84649 47.334 7.02306 47.334 4.83405C47.334 2.18921 45.145 0 42.5 0C39.855 0 37.6659 2.18901 37.6659 4.83405C37.6659 7.02306 39.1253 8.84657 41.1316 9.48515V18.0579C35.3858 18.3317 30.1878 20.7027 26.1745 24.2594L20.155 18.2399C20.5198 17.5102 20.7936 16.7805 20.7936 15.9598C20.7936 14.6832 20.2468 13.4977 19.3343 12.5852C18.4225 11.6735 17.2369 11.1259 15.9598 11.1259C14.6832 11.1259 13.4977 11.6728 12.5852 12.5852C11.6735 13.497 11.1259 14.6826 11.1259 15.9598C11.1259 17.2363 11.6728 18.4219 12.5852 19.3343C13.497 20.246 14.6826 20.7936 15.9598 20.7936C16.7805 20.7936 17.5102 20.6116 18.2399 20.155L24.2594 26.1745C20.7027 30.1871 18.4226 35.3858 18.0579 41.1315H9.48515C8.84649 39.1253 7.02307 37.6659 4.83405 37.6659C2.18921 37.6659 0 39.855 0 42.5C0 45.145 2.18902 47.334 4.83405 47.334C7.02307 47.334 8.84657 45.8747 9.48515 43.8684H18.0579C18.3317 49.6142 20.7027 54.8122 24.2594 58.8255L18.2399 64.845C17.5102 64.4802 16.7805 64.2064 15.9598 64.2064C14.6832 64.2064 13.4977 64.7532 12.5852 65.6657C11.6735 66.5774 11.1259 67.7631 11.1259 69.0402C11.1259 70.3168 11.6728 71.5023 12.5852 72.4147C13.497 73.3265 14.6826 73.8741 15.9598 73.8741C17.2363 73.8741 18.4219 73.3272 19.3343 72.4147C20.246 71.503 20.7936 70.3174 20.7936 69.0402C20.7936 68.2195 20.6116 67.4898 20.155 66.7601L26.1745 60.7406C30.1871 64.2973 35.3858 66.5774 41.1316 66.9421V75.5148C39.1253 76.1535 37.6659 77.9769 37.6659 80.1659C37.6659 82.8108 39.855 85 42.5 85C45.145 85 47.334 82.811 47.334 80.1659C47.334 77.9769 45.8747 76.1534 43.8685 75.5148V66.9421C49.6142 66.6683 54.8122 64.2973 58.8255 60.7406L64.845 66.7601C64.4802 67.4898 64.2064 68.2195 64.2064 69.0402C64.2064 70.3168 64.7532 71.5023 65.6657 72.4147C66.5775 73.3265 67.7631 73.8741 69.0402 73.8741C70.3168 73.8741 71.5023 73.3272 72.4148 72.4147C73.3265 71.503 73.8741 70.3174 73.8741 69.0402C73.8741 67.7637 73.3272 66.5781 72.4148 65.6657C71.503 64.754 70.3174 64.2064 69.0402 64.2064C68.2195 64.2064 67.4898 64.3884 66.7601 64.845L60.7406 58.8247C64.2973 54.8122 66.5774 49.6134 66.9421 43.8677H75.5148C76.1535 45.8739 77.9769 47.3333 80.166 47.3333C82.8108 47.3333 85 45.1443 85 42.4992C85 39.8542 82.7199 37.6659 80.0751 37.6659H80.0749ZM67.5799 14.4085C67.9448 14.0437 68.4917 13.7698 69.0393 13.7698C69.5862 13.7698 70.1338 13.9519 70.4986 14.4085C71.3194 15.2292 71.3194 16.5975 70.4986 17.4183C69.6779 18.239 68.3096 18.239 67.58 17.4183C66.7593 16.5976 66.7593 15.23 67.58 14.4085H67.5799ZM40.4036 4.92412C40.4036 3.73858 41.3153 2.82677 42.5009 2.82677C43.6865 2.82677 44.5983 3.7385 44.5983 4.92412C44.5983 6.10974 43.6865 7.02147 42.5009 7.02147C41.3153 7.02147 40.4036 6.10974 40.4036 4.92412ZM14.4115 17.4183C13.5908 16.5976 13.5908 15.2293 14.4115 14.4085C14.7764 14.0437 15.3233 13.7698 15.8709 13.7698C16.4178 13.7698 16.9654 13.9519 17.3303 14.4085C18.151 15.2292 18.151 16.5975 17.3303 17.3272C16.6006 18.2389 15.2329 18.2389 14.4116 17.4182L14.4115 17.4183ZM4.92714 44.5966C3.7416 44.5966 2.82979 43.6848 2.82979 42.4992C2.82979 41.3136 3.74153 40.4019 4.92714 40.4019C6.11276 40.4019 7.02449 41.3136 7.02449 42.4992C7.02449 43.684 6.11276 44.5966 4.92714 44.5966ZM17.4213 70.5886C16.6006 71.4093 15.2323 71.4093 14.5026 70.5886C13.6819 69.7679 13.6819 68.3996 14.5026 67.5788C14.8675 67.214 15.4143 66.9402 15.962 66.9402C16.5089 66.9402 17.0565 67.1222 17.4213 67.5788C18.242 68.4003 18.242 69.7678 17.4213 70.5886H17.4213ZM44.5996 80.0738C44.5996 81.2593 43.6879 82.1711 42.5023 82.1711C41.3166 82.1711 40.4049 81.2594 40.4049 80.0738C40.4049 78.8881 41.3166 77.9764 42.5023 77.9764C43.687 77.9757 44.5996 78.8881 44.5996 80.0738ZM70.5916 67.5788C71.4123 68.3995 71.4123 69.7678 70.5916 70.5886C69.7709 71.4094 68.4026 71.4093 67.6729 70.5886C66.8522 69.7679 66.8522 68.3996 67.6729 67.6699C68.0378 67.3051 68.5847 67.0313 69.1323 67.0313C69.5889 66.941 70.1358 67.2148 70.5917 67.5789L70.5916 67.5788ZM42.5024 64.2049C30.5552 64.2049 20.7972 54.4467 20.7972 42.4996C20.7972 30.5516 30.5554 20.7943 42.5024 20.7943C54.4495 20.7943 64.2077 30.5526 64.2077 42.4996C64.2077 54.4467 54.4487 64.2049 42.5024 64.2049ZM80.0779 44.5968C78.8924 44.5968 77.9806 43.685 77.9806 42.4994C77.9806 41.3138 78.8923 40.4021 80.0779 40.4021C81.2636 40.4021 82.1753 41.3138 82.1753 42.4994C82.1753 43.6842 81.2636 44.5968 80.0779 44.5968Z" fill="white" stroke="white" stroke-width="2" mask="url(#path-2-inside-2_403_10468)"/>
</svg>
