<svg width="108" height="210" viewBox="0 0 108 210" fill="none" xmlns="http://www.w3.org/2000/svg">
<path d="M93.0525 0H14.284C6.79414 0 0.722412 6.07173 0.722412 13.5616V196.134C0.722412 203.624 6.79414 209.696 14.284 209.696H93.0525C100.542 209.696 106.614 203.624 106.614 196.134V13.5616C106.614 6.07173 100.542 0 93.0525 0Z" fill="#455A64"/>
<path d="M104.95 196.129L104.95 13.5617C104.95 6.99109 99.6232 1.66455 93.0525 1.66455L14.2894 1.66455C7.7188 1.66455 2.39226 6.99109 2.39226 13.5617L2.39226 196.129C2.39226 202.7 7.7188 208.026 14.2894 208.026H93.0525C99.6232 208.026 104.95 202.7 104.95 196.129Z" fill="#263238"/>
<path d="M46.0688 8.27375C45.7565 8.27375 45.457 8.14971 45.2362 7.9289C45.0154 7.70809 44.8914 7.40862 44.8914 7.09635C44.8914 6.78408 45.0154 6.48461 45.2362 6.2638C45.457 6.04299 45.7565 5.91895 46.0688 5.91895H61.2091C61.5214 5.91895 61.8209 6.04299 62.0417 6.2638C62.2625 6.48461 62.3865 6.78408 62.3865 7.09635C62.3865 7.40862 62.2625 7.70809 62.0417 7.9289C61.8209 8.14971 61.5214 8.27375 61.2091 8.27375H46.0688Z" fill="#455A64"/>
<path d="M37.9447 8.27376C37.7119 8.27376 37.4842 8.2047 37.2906 8.07533C37.097 7.94595 36.9461 7.76207 36.857 7.54693C36.7678 7.33178 36.7445 7.09505 36.79 6.86665C36.8354 6.63826 36.9475 6.42846 37.1122 6.2638C37.2769 6.09914 37.4866 5.987 37.715 5.94157C37.9434 5.89614 38.1802 5.91946 38.3953 6.00857C38.6105 6.09769 38.7943 6.2486 38.9237 6.44222C39.0531 6.63585 39.1221 6.86348 39.1221 7.09635C39.1207 7.40819 38.9962 7.70685 38.7757 7.92735C38.5552 8.14785 38.2566 8.27235 37.9447 8.27376Z" fill="#455A64"/>
<path d="M42.2795 8.27376C42.0466 8.27376 41.8189 8.2047 41.6253 8.07533C41.4317 7.94595 41.2808 7.76207 41.1917 7.54693C41.1026 7.33178 41.0792 7.09505 41.1247 6.86665C41.1701 6.63826 41.2822 6.42846 41.4469 6.2638C41.6116 6.09914 41.8214 5.987 42.0498 5.94157C42.2782 5.89614 42.5149 5.91946 42.73 6.00857C42.9452 6.09769 43.1291 6.2486 43.2584 6.44222C43.3878 6.63585 43.4569 6.86348 43.4569 7.09635C43.4555 7.40819 43.331 7.70685 43.1105 7.92735C42.8899 8.14785 42.5913 8.27235 42.2795 8.27376Z" fill="#455A64"/>
<path d="M69.3974 8.27376C69.1645 8.27376 68.9369 8.2047 68.7432 8.07533C68.5496 7.94595 68.3987 7.76207 68.3096 7.54693C68.2205 7.33178 68.1972 7.09505 68.2426 6.86665C68.288 6.63826 68.4002 6.42846 68.5648 6.2638C68.7295 6.09914 68.9393 5.987 69.1677 5.94157C69.3961 5.89614 69.6328 5.91946 69.848 6.00857C70.0631 6.09769 70.247 6.2486 70.3764 6.44222C70.5057 6.63585 70.5748 6.86348 70.5748 7.09635C70.5734 7.40819 70.4489 7.70685 70.2284 7.92735C70.0079 8.14785 69.7092 8.27235 69.3974 8.27376Z" fill="#455A64"/>
<path d="M65.0624 8.27376C64.8295 8.27376 64.6019 8.2047 64.4083 8.07533C64.2147 7.94595 64.0637 7.76207 63.9746 7.54693C63.8855 7.33178 63.8622 7.09505 63.9076 6.86665C63.9531 6.63826 64.0652 6.42846 64.2299 6.2638C64.3945 6.09914 64.6043 5.987 64.8327 5.94157C65.0611 5.89614 65.2979 5.91946 65.513 6.00857C65.7281 6.09769 65.912 6.2486 66.0414 6.44222C66.1708 6.63585 66.2398 6.86348 66.2398 7.09635C66.2384 7.40819 66.1139 7.70685 65.8934 7.92735C65.6729 8.14785 65.3742 8.27235 65.0624 8.27376Z" fill="#455A64"/>
<path d="M93.4645 3.08252H78.5971C77.4507 3.08218 76.3352 3.45404 75.4183 4.14218C74.5014 4.83032 73.8328 5.79754 73.5128 6.89839L73.2613 7.76539C72.9194 8.94304 72.2044 9.97786 71.2238 10.7143C70.2432 11.4506 69.0501 11.8488 67.8238 11.8488H39.5179C38.2916 11.8488 37.0985 11.4506 36.1179 10.7143C35.1373 9.97786 34.4223 8.94304 34.0804 7.76539L33.8556 6.89839C33.5357 5.79754 32.867 4.83032 31.9502 4.14218C31.0333 3.45404 29.9178 3.08218 28.7714 3.08252H15.2526C12.4749 3.08252 9.81086 4.18598 7.84669 6.15016C5.88251 8.11433 4.77905 10.7783 4.77905 13.5561V195.39C4.77905 196.684 5.0339 197.966 5.52905 199.161C6.0242 200.356 6.74995 201.442 7.66486 202.357C8.57977 203.272 9.66593 203.998 10.8613 204.493C12.0567 204.988 13.3379 205.243 14.6318 205.243H93.6411C94.8127 205.243 95.9728 205.012 97.0552 204.564C98.1377 204.116 99.1212 203.459 99.9496 202.63C100.778 201.802 101.435 200.818 101.884 199.736C102.332 198.653 102.563 197.493 102.563 196.322V12.1807C102.563 9.76768 101.604 7.45354 99.8979 5.7473C98.1916 4.04107 95.8775 3.08252 93.4645 3.08252Z" fill="#FAFAFA"/>
<path d="M106.753 69.6758H106.63V45.5925H106.753C106.905 45.5925 107.051 45.6528 107.158 45.7602C107.266 45.8676 107.326 46.0132 107.326 46.1651V69.1245C107.32 69.2727 107.258 69.4129 107.151 69.5157C107.044 69.6185 106.902 69.6759 106.753 69.6758Z" fill="#455A64"/>
<path d="M0.572643 60.4277H0.722494V75.6858H0.572643C0.420768 75.6858 0.275111 75.6255 0.167719 75.5181C0.0603266 75.4107 0 75.2651 0 75.1132V61.0004C0 60.8485 0.0603266 60.7029 0.167719 60.5955C0.275111 60.4881 0.420768 60.4277 0.572643 60.4277Z" fill="#455A64"/>
<path d="M0.572643 40.4922H0.722494V55.7503H0.572643C0.420768 55.7503 0.275111 55.69 0.167719 55.5826C0.0603266 55.4752 0 55.3295 0 55.1777V41.0648C0 40.913 0.0603266 40.7673 0.167719 40.6599C0.275111 40.5525 0.420768 40.4922 0.572643 40.4922Z" fill="#455A64"/>
<path d="M0.610239 25.5283H0.722623V32.6249H0.610239C0.475396 32.6249 0.346075 32.5713 0.250727 32.476C0.155378 32.3806 0.101807 32.2513 0.101807 32.1164V26.0368C0.101807 25.9019 0.155378 25.7726 0.250727 25.6772C0.346075 25.5819 0.475396 25.5283 0.610239 25.5283Z" fill="#455A64"/>
<path d="M79.5553 9.90625H78.8274V10.9285H79.5553V9.90625Z" fill="#263238"/>
<path d="M80.7379 9.45117H80.01V10.9229H80.7379V9.45117Z" fill="#263238"/>
<path d="M81.9207 9.10889H81.1929V10.9232H81.9207V9.10889Z" fill="#263238"/>
<path d="M83.1033 8.45068H82.3755V10.9232H83.1033V8.45068Z" fill="#263238"/>
<path d="M93.8448 10.9766H90.1895C90.1551 10.9766 90.121 10.9698 90.0891 10.9566C90.0573 10.9434 90.0284 10.9241 90.0041 10.8998C89.9797 10.8754 89.9604 10.8465 89.9472 10.8147C89.934 10.7829 89.9272 10.7488 89.9272 10.7143V8.90006C89.9272 8.86562 89.934 8.83152 89.9472 8.79971C89.9604 8.76789 89.9797 8.73898 90.0041 8.71463C90.0284 8.69028 90.0573 8.67096 90.0891 8.65778C90.121 8.6446 90.1551 8.63782 90.1895 8.63782H93.8448C93.8586 8.63245 93.8739 8.63245 93.8876 8.63782C93.8939 8.65327 93.8939 8.67054 93.8876 8.68599V9.30145H94.2783C94.2959 9.3014 94.3128 9.30799 94.3257 9.3199C94.3386 9.33181 94.3465 9.34816 94.3479 9.36567V10.2434C94.3479 10.2523 94.3461 10.2611 94.3425 10.2693C94.339 10.2774 94.3338 10.2847 94.3272 10.2908C94.3207 10.2968 94.313 10.3014 94.3045 10.3043C94.2961 10.3072 94.2872 10.3083 94.2783 10.3076H93.8876V10.907C93.8887 10.9216 93.8852 10.9362 93.8775 10.9487C93.8698 10.9612 93.8584 10.971 93.8448 10.9766ZM93.7966 8.77162H90.2109C90.1768 8.77162 90.1442 8.78515 90.1201 8.80924C90.096 8.83333 90.0825 8.866 90.0825 8.90006V10.7143C90.0825 10.7484 90.096 10.7811 90.1201 10.8052C90.1442 10.8292 90.1768 10.8428 90.2109 10.8428H93.7966V10.2434C93.7966 10.2249 93.804 10.2072 93.817 10.1942C93.8301 10.1811 93.8478 10.1738 93.8662 10.1738H94.2569V9.43525H93.8662C93.8478 9.43525 93.8301 9.42792 93.817 9.41487C93.804 9.40182 93.7966 9.38412 93.7966 9.36567V8.77162Z" fill="#263238"/>
<path d="M90.3606 10.543V9.06592H93.4754V9.7349V9.8794V10.543H90.3606Z" fill="#263238"/>
<path d="M86.5874 10.8374C86.5874 10.7664 86.5592 10.6984 86.509 10.6482C86.4589 10.598 86.3908 10.5698 86.3198 10.5698C86.2669 10.5698 86.2152 10.5855 86.1712 10.6149C86.1272 10.6443 86.0929 10.6861 86.0726 10.735C86.0524 10.7839 86.0471 10.8377 86.0574 10.8896C86.0677 10.9415 86.0932 10.9892 86.1306 11.0266C86.168 11.0641 86.2157 11.0895 86.2676 11.0999C86.3195 11.1102 86.3733 11.1049 86.4222 11.0846C86.4711 11.0644 86.5129 11.0301 86.5423 10.9861C86.5717 10.9421 86.5874 10.8903 86.5874 10.8374Z" fill="#263238"/>
<path d="M85.4102 10.1901L85.7473 10.5326C85.9 10.3822 86.1056 10.2976 86.32 10.2971C86.5327 10.2979 86.7365 10.3825 86.8873 10.5326L87.2298 10.1901C86.9873 9.95086 86.6606 9.81635 86.32 9.81544C86.1511 9.81473 85.9838 9.84747 85.8276 9.91177C85.6714 9.97607 85.5296 10.0707 85.4102 10.1901Z" fill="#263238"/>
<path d="M86.3039 9.05518C85.7602 9.05526 85.2386 9.27079 84.8535 9.65458L85.196 9.9971C85.3408 9.85131 85.513 9.7356 85.7026 9.65664C85.8923 9.57768 86.0957 9.53702 86.3012 9.53702C86.5066 9.53702 86.7101 9.57768 86.8997 9.65664C87.0894 9.7356 87.2616 9.85131 87.4063 9.9971L87.7489 9.65458C87.3657 9.27111 86.8459 9.0555 86.3039 9.05518Z" fill="#263238"/>
<path d="M84.3184 9.10331L84.6609 9.44048C85.1013 9.00124 85.6979 8.75458 86.3199 8.75458C86.942 8.75458 87.5386 9.00124 87.979 9.44048L88.3215 9.10331C87.7906 8.57257 87.0707 8.27441 86.3199 8.27441C85.5692 8.27441 84.8493 8.57257 84.3184 9.10331Z" fill="#263238"/>
<path d="M87.9095 39.0736H21.5466C19.7959 39.0736 18.117 38.3786 16.8786 37.1412C15.6402 35.9038 14.9438 34.2254 14.9424 32.4748C14.9438 30.7242 15.6402 29.0458 16.8786 27.8084C18.117 26.571 19.7959 25.876 21.5466 25.876H87.9095C89.6596 25.876 91.338 26.5712 92.5755 27.8087C93.8131 29.0462 94.5083 30.7247 94.5083 32.4748C94.5083 34.2249 93.8131 35.9034 92.5755 37.1409C91.338 38.3784 89.6596 39.0736 87.9095 39.0736Z" fill="#E0E0E0"/>
<path d="M86.1809 34.9902C85.6821 34.9902 85.1945 34.8422 84.7799 34.565C84.3652 34.2878 84.0421 33.8938 83.8515 33.4328C83.6609 32.9719 83.6113 32.4648 83.709 31.9757C83.8067 31.4866 84.0473 31.0375 84.4004 30.6851C84.7534 30.3328 85.2031 30.0932 85.6924 29.9965C86.1817 29.8999 86.6887 29.9505 87.1492 30.1422C87.6097 30.3338 88.0031 30.6577 88.2794 31.0729C88.5557 31.4881 88.7027 31.976 88.7016 32.4748C88.7002 33.1424 88.434 33.7822 87.9614 34.2538C87.4888 34.7253 86.8485 34.9902 86.1809 34.9902ZM86.1809 30.4572C85.7818 30.4572 85.3917 30.5755 85.0599 30.7972C84.7281 31.0189 84.4695 31.334 84.3168 31.7027C84.1641 32.0714 84.1241 32.477 84.202 32.8684C84.2799 33.2598 84.472 33.6193 84.7542 33.9015C85.0364 34.1837 85.3959 34.3758 85.7873 34.4537C86.1786 34.5315 86.5843 34.4916 86.953 34.3389C87.3217 34.1862 87.6368 33.9276 87.8585 33.5957C88.0802 33.2639 88.1985 32.8739 88.1985 32.4748C88.1985 31.9397 87.9859 31.4265 87.6076 31.0481C87.2292 30.6697 86.716 30.4572 86.1809 30.4572Z" fill="#263238"/>
<path d="M89.5632 35.6324C89.5024 35.6344 89.4432 35.6134 89.3973 35.5736L87.7382 34.1232C87.6918 34.0761 87.6658 34.0127 87.6658 33.9466C87.6658 33.8805 87.6918 33.8171 87.7382 33.77C87.7611 33.7464 87.7886 33.7276 87.8189 33.7147C87.8493 33.7019 87.8819 33.6953 87.9148 33.6953C87.9477 33.6953 87.9803 33.7019 88.0107 33.7147C88.041 33.7276 88.0685 33.7464 88.0914 33.77L89.7505 35.2203C89.7969 35.2674 89.8229 35.3309 89.8229 35.397C89.8229 35.4631 89.7969 35.5265 89.7505 35.5736C89.7253 35.5963 89.6956 35.6133 89.6633 35.6235C89.6309 35.6336 89.5968 35.6367 89.5632 35.6324Z" fill="#263238"/>
<path d="M46.5344 164.874C46.5344 165.298 46.4089 165.711 46.1736 166.063C45.9384 166.416 45.6041 166.69 45.2129 166.852C44.8217 167.014 44.3913 167.056 43.976 166.974C43.5608 166.891 43.1793 166.687 42.8799 166.388C42.5806 166.088 42.3767 165.707 42.2941 165.292C42.2115 164.877 42.2539 164.446 42.4159 164.055C42.5779 163.664 42.8523 163.329 43.2043 163.094C43.5564 162.859 43.9703 162.733 44.3937 162.733C44.9614 162.733 45.5059 162.959 45.9074 163.36C46.3089 163.762 46.5344 164.306 46.5344 164.874Z" fill="#EBEBEB"/>
<path d="M53.6577 164.874C53.6577 165.298 53.5321 165.711 53.2969 166.063C53.0617 166.416 52.7274 166.69 52.3362 166.852C51.945 167.014 51.5146 167.056 51.0993 166.974C50.6841 166.891 50.3026 166.687 50.0032 166.388C49.7038 166.088 49.5 165.707 49.4174 165.292C49.3348 164.877 49.3772 164.446 49.5392 164.055C49.7012 163.664 49.9756 163.329 50.3276 163.094C50.6797 162.859 51.0936 162.733 51.517 162.733C52.0847 162.733 52.6292 162.959 53.0307 163.36C53.4322 163.762 53.6577 164.306 53.6577 164.874Z" fill="#E0E0E0"/>
<path d="M58.6508 167.004C59.8272 167.004 60.7808 166.051 60.7808 164.874C60.7808 163.698 59.8272 162.744 58.6508 162.744C57.4744 162.744 56.5208 163.698 56.5208 164.874C56.5208 166.051 57.4744 167.004 58.6508 167.004Z" fill="#E0E0E0"/>
<path d="M67.9043 164.874C67.9043 165.298 67.7787 165.711 67.5435 166.063C67.3083 166.416 66.9739 166.69 66.5828 166.852C66.1916 167.014 65.7612 167.056 65.3459 166.974C64.9306 166.891 64.5492 166.687 64.2498 166.388C63.9504 166.088 63.7465 165.707 63.6639 165.292C63.5813 164.877 63.6237 164.446 63.7857 164.055C63.9478 163.664 64.2222 163.329 64.5742 163.094C64.9262 162.859 65.3401 162.733 65.7635 162.733C66.3313 162.733 66.8758 162.959 67.2773 163.36C67.6787 163.762 67.9043 164.306 67.9043 164.874Z" fill="#E0E0E0"/>
<path d="M26.3524 175.471H18.892C16.2111 175.471 14.0378 177.644 14.0378 180.325V187.786C14.0378 190.467 16.2111 192.64 18.892 192.64H26.3524C29.0333 192.64 31.2066 190.467 31.2066 187.786V180.325C31.2066 177.644 29.0333 175.471 26.3524 175.471Z" fill="#0067A0"/>
<path d="M47.4655 175.311H40.5831C37.7426 175.311 35.4399 177.613 35.4399 180.454V187.336C35.4399 190.177 37.7426 192.479 40.5831 192.479H47.4655C50.306 192.479 52.6087 190.177 52.6087 187.336V180.454C52.6087 177.613 50.306 175.311 47.4655 175.311Z" fill="#E0E0E0"/>
<path d="M68.573 175.15H62.2793C59.2762 175.15 56.8418 177.584 56.8418 180.587V186.881C56.8418 189.884 59.2762 192.319 62.2793 192.319H68.573C71.5761 192.319 74.0105 189.884 74.0105 186.881V180.587C74.0105 177.584 71.5761 175.15 68.573 175.15Z" fill="#455A64"/>
<path d="M89.9056 175.471H83.7402C80.7017 175.471 78.2385 177.934 78.2385 180.973V187.138C78.2385 190.177 80.7017 192.64 83.7402 192.64H89.9056C92.9441 192.64 95.4073 190.177 95.4073 187.138V180.973C95.4073 177.934 92.9441 175.471 89.9056 175.471Z" fill="#263238"/>
<path d="M61.4231 187.903L62.0493 185.57C61.6967 184.933 61.5125 184.216 61.5141 183.488C61.5107 182.54 61.8189 181.617 62.3912 180.862C62.9635 180.106 63.7682 179.56 64.6815 179.306C65.5948 179.052 66.5661 179.106 67.446 179.458C68.3259 179.811 69.0657 180.443 69.5515 181.256C70.0373 182.07 70.2422 183.021 70.1347 183.963C70.0273 184.905 69.6134 185.785 68.9567 186.469C68.3001 187.152 67.437 187.601 66.5003 187.746C65.5637 187.891 64.6052 187.724 63.7725 187.272L61.4231 187.903ZM63.8849 186.399L64.0294 186.49C64.6922 186.885 65.4669 187.049 66.2328 186.957C66.9987 186.865 67.7126 186.523 68.2634 185.983C68.8143 185.443 69.171 184.736 69.2779 183.972C69.3849 183.208 69.2362 182.43 68.8549 181.76C68.4736 181.089 67.8812 180.564 67.1701 180.265C66.4589 179.966 65.6689 179.911 64.9232 180.109C64.1775 180.306 63.5181 180.744 63.0476 181.356C62.5771 181.967 62.3221 182.717 62.3222 183.488C62.3228 184.126 62.4987 184.752 62.8306 185.297L62.9216 185.447L62.5737 186.753L63.8849 186.399Z" fill="white"/>
<path fill-rule="evenodd" clip-rule="evenodd" d="M67.3691 184.114C67.2839 184.045 67.1842 183.997 67.0775 183.973C66.9708 183.949 66.86 183.95 66.7536 183.975C66.5931 184.039 66.4914 184.291 66.3843 184.419C66.3619 184.449 66.3296 184.469 66.2933 184.477C66.2569 184.485 66.219 184.48 66.1863 184.462C65.5991 184.231 65.107 183.808 64.7895 183.263C64.7609 183.232 64.7451 183.191 64.7451 183.148C64.7451 183.105 64.7609 183.064 64.7895 183.033C64.9103 182.921 64.9989 182.779 65.0464 182.621C65.0551 182.451 65.0162 182.283 64.934 182.134C64.8661 181.924 64.7399 181.739 64.5701 181.599C64.4829 181.558 64.3856 181.543 64.2903 181.558C64.195 181.572 64.1062 181.614 64.0349 181.679C63.9118 181.784 63.8141 181.916 63.7492 182.064C63.6843 182.212 63.6539 182.373 63.6603 182.535C63.6598 182.627 63.6705 182.719 63.6924 182.808C63.752 183.021 63.8402 183.224 63.9546 183.413C64.0402 183.556 64.1312 183.695 64.2275 183.83C64.5552 184.275 64.9637 184.655 65.4317 184.949C65.6645 185.091 65.9122 185.208 66.1703 185.297C66.4398 185.42 66.7374 185.468 67.0319 185.436C67.199 185.408 67.357 185.34 67.4929 185.238C67.6287 185.137 67.7386 185.005 67.8133 184.853C67.8533 184.76 67.8663 184.658 67.8507 184.558C67.8079 184.333 67.535 184.21 67.3691 184.114Z" fill="white"/>
<path fill-rule="evenodd" clip-rule="evenodd" d="M25.6514 185.088C25.4892 184.958 25.2991 184.866 25.0959 184.821C24.8927 184.775 24.6817 184.777 24.4793 184.826C24.1743 184.949 23.9816 185.426 23.7836 185.666C23.7425 185.724 23.6816 185.765 23.6126 185.78C23.5435 185.796 23.4711 185.786 23.409 185.752C22.2947 185.317 21.3608 184.517 20.7598 183.483C20.7086 183.418 20.684 183.336 20.6909 183.253C20.6979 183.171 20.7359 183.094 20.7973 183.039C21.0241 182.825 21.1903 182.556 21.2789 182.257C21.2969 181.935 21.2227 181.613 21.0649 181.331C20.9043 180.989 20.7277 180.497 20.3798 180.304C20.2143 180.226 20.0297 180.199 19.8489 180.226C19.668 180.252 19.4991 180.332 19.363 180.454C19.1334 180.652 18.9505 180.899 18.8274 181.177C18.7044 181.454 18.6442 181.756 18.6512 182.059C18.65 182.24 18.6715 182.419 18.7154 182.594C18.822 182.999 18.9899 183.386 19.2131 183.74C19.3737 184.013 19.5449 184.275 19.7483 184.532C20.3575 185.368 21.1226 186.079 22.0014 186.624C22.4432 186.897 22.9134 187.122 23.4036 187.293C23.9166 187.524 24.4822 187.613 25.0413 187.55C25.3594 187.501 25.6607 187.375 25.919 187.182C26.1773 186.99 26.3849 186.738 26.5237 186.448C26.6024 186.272 26.6266 186.076 26.5933 185.886C26.4916 185.484 25.9672 185.276 25.6514 185.088Z" fill="white"/>
<path d="M89.515 181.305C89.4155 181.305 89.3183 181.334 89.2355 181.389C89.1528 181.445 89.0883 181.523 89.0503 181.615C89.0122 181.707 89.0022 181.808 89.0216 181.906C89.041 182.003 89.089 182.093 89.1593 182.163C89.2297 182.234 89.3193 182.282 89.4169 182.301C89.5145 182.321 89.6156 182.311 89.7075 182.273C89.7995 182.234 89.878 182.17 89.9333 182.087C89.9886 182.005 90.0181 181.907 90.0181 181.808C90.0181 181.674 89.9651 181.546 89.8708 181.452C89.7764 181.358 89.6485 181.305 89.515 181.305Z" fill="white"/>
<path d="M87.2834 181.802C86.8661 181.801 86.4579 181.924 86.1105 182.155C85.763 182.386 85.4919 182.715 85.3315 183.1C85.1711 183.485 85.1285 183.91 85.2093 184.319C85.2901 184.728 85.4905 185.105 85.7851 185.4C86.0798 185.695 86.4555 185.897 86.8647 185.979C87.2739 186.06 87.6981 186.019 88.0837 185.86C88.4694 185.7 88.799 185.43 89.0309 185.083C89.2629 184.736 89.3867 184.328 89.3867 183.911C89.3853 183.353 89.1634 182.818 88.7694 182.423C88.3754 182.028 87.8413 181.805 87.2834 181.802ZM87.2834 185.26C87.0167 185.26 86.7559 185.18 86.5341 185.032C86.3123 184.884 86.1395 184.673 86.0374 184.427C85.9353 184.181 85.9086 183.909 85.9607 183.648C86.0127 183.386 86.1411 183.146 86.3298 182.957C86.5184 182.769 86.7587 182.64 87.0203 182.588C87.2819 182.536 87.5531 182.563 87.7995 182.665C88.046 182.767 88.2566 182.94 88.4048 183.162C88.553 183.383 88.6321 183.644 88.6321 183.911C88.6321 184.269 88.49 184.612 88.2371 184.865C87.9841 185.117 87.6411 185.26 87.2834 185.26Z" fill="white"/>
<path d="M88.9797 188.332H85.5652C84.8839 188.332 84.2305 188.061 83.7487 187.579C83.267 187.097 82.9963 186.444 82.9963 185.763V182.348C82.9963 181.667 83.267 181.013 83.7487 180.532C84.2305 180.05 84.8839 179.779 85.5652 179.779H88.9797C89.661 179.779 90.3144 180.05 90.7962 180.532C91.2779 181.013 91.5486 181.667 91.5486 182.348V185.763C91.5486 186.444 91.2779 187.097 90.7962 187.579C90.3144 188.061 89.661 188.332 88.9797 188.332ZM85.5652 180.582C85.0968 180.582 84.6476 180.768 84.3164 181.099C83.9852 181.431 83.7991 181.88 83.7991 182.348V185.763C83.7991 186.231 83.9852 186.68 84.3164 187.011C84.6476 187.343 85.0968 187.529 85.5652 187.529H88.9797C89.4481 187.529 89.8973 187.343 90.2285 187.011C90.5597 186.68 90.7458 186.231 90.7458 185.763V182.348C90.7458 181.88 90.5597 181.431 90.2285 181.099C89.8973 180.768 89.4481 180.582 88.9797 180.582H85.5652Z" fill="white"/>
<path d="M40.2247 188.08C40.1498 188.078 40.0772 188.054 40.0156 188.012C39.954 187.969 39.906 187.91 39.8777 187.841C39.8493 187.771 39.8417 187.695 39.8558 187.622C39.8699 187.548 39.9051 187.481 39.9571 187.427L41.9961 185.388C41.4635 184.715 41.1951 183.871 41.2414 183.015C41.2878 182.158 41.6456 181.348 42.2476 180.737C42.7243 180.261 43.3287 179.933 43.9877 179.793C44.6467 179.652 45.3322 179.706 45.9615 179.947C46.5907 180.188 47.1367 180.606 47.5336 181.15C47.9305 181.695 48.1612 182.343 48.198 183.015C48.2347 183.688 48.0759 184.357 47.7407 184.942C47.4056 185.526 46.9083 186.001 46.3091 186.309C45.7099 186.617 45.0343 186.745 44.3639 186.678C43.6935 186.61 43.057 186.35 42.5313 185.928L40.4922 187.967C40.4214 188.039 40.3252 188.079 40.2247 188.08ZM44.7148 180.48C44.0846 180.48 43.474 180.699 42.9869 181.099C42.4999 181.499 42.1666 182.055 42.0438 182.674C41.9211 183.292 42.0164 183.933 42.3137 184.489C42.6109 185.045 43.0917 185.48 43.674 185.721C44.2563 185.962 44.9042 185.994 45.5072 185.811C46.1102 185.628 46.6311 185.241 46.9811 184.717C47.3311 184.193 47.4886 183.564 47.4266 182.937C47.3647 182.309 47.0873 181.723 46.6415 181.278C46.389 181.024 46.0887 180.823 45.758 180.686C45.4273 180.549 45.0728 180.479 44.7148 180.48Z" fill="white"/>
<path d="M61.359 72.8762C61.4194 72.8845 61.4806 72.8845 61.541 72.8762C61.7114 72.8506 61.872 72.7805 62.0066 72.6729C62.1025 72.5963 62.1825 72.5018 62.2421 72.3946C62.2749 72.3337 62.3 72.269 62.317 72.2019C62.3341 72.1282 62.3431 72.0528 62.3438 71.9771C62.344 71.8971 62.3314 71.8176 62.3063 71.7417C62.2883 71.6546 62.2596 71.5701 62.2207 71.4901C62.1273 71.3325 61.9896 71.2059 61.8246 71.1262C61.8262 71.0008 61.793 70.8775 61.7287 70.7698C61.6645 70.6621 61.5717 70.5743 61.4607 70.5161C61.3374 70.457 61.199 70.4372 61.0641 70.4592C60.9292 70.4812 60.8043 70.544 60.7061 70.6392V70.6124C60.6598 70.4127 60.5653 70.2274 60.431 70.0726C60.2967 69.9177 60.1266 69.7981 59.9354 69.724C59.8354 69.6865 59.7312 69.6613 59.625 69.6491H59.4645H59.3039C59.1057 69.6882 58.9211 69.7786 58.7687 69.9113C58.6195 70.0399 58.4991 70.1986 58.4155 70.3769C58.3415 70.5453 58.3068 70.7283 58.3138 70.9121C58.1103 70.8643 57.8964 70.8889 57.7091 70.9817C57.6219 71.0263 57.541 71.0821 57.4682 71.1476C57.4007 71.2093 57.3413 71.2795 57.2916 71.3563C57.2498 71.4318 57.2191 71.5129 57.2006 71.5972C57.19 71.6771 57.19 71.7581 57.2006 71.838C57.2148 71.9793 57.2586 72.1161 57.3291 72.2394C57.4274 72.4157 57.5792 72.5563 57.7626 72.6408C57.8284 72.6695 57.8964 72.6928 57.966 72.7103H57.9124H57.8482L57.7572 72.6782C57.5703 72.595 57.4147 72.4544 57.313 72.2768C57.24 72.1504 57.1944 72.01 57.1792 71.8647C57.1688 71.783 57.1688 71.7003 57.1792 71.6186C57.2011 71.5328 57.2334 71.4501 57.2756 71.3724C57.3253 71.2908 57.3866 71.2169 57.4575 71.153C57.5299 71.0845 57.6131 71.0284 57.7037 70.987C57.8966 70.8878 58.1182 70.8593 58.3299 70.9068C58.3234 70.7225 58.36 70.5392 58.4369 70.3716C58.5221 70.1881 58.6441 70.0241 58.7955 69.8899C58.9477 69.7559 59.1321 69.6637 59.3307 69.6223C59.3858 69.6168 59.4414 69.6168 59.4966 69.6223H59.5769H59.6571C59.7681 69.63 59.8768 69.6572 59.9783 69.7026C60.1743 69.7769 60.3491 69.8983 60.4872 70.056C60.6253 70.2137 60.7225 70.4029 60.7703 70.6071C60.8723 70.5056 61.0032 70.4383 61.1451 70.4143C61.2869 70.3903 61.4327 70.4109 61.5624 70.4733C61.6784 70.5349 61.7749 70.6277 61.841 70.7411C61.9072 70.8546 61.9405 70.9842 61.937 71.1155C62.1065 71.1977 62.248 71.328 62.3438 71.4901C62.3867 71.5663 62.4208 71.6471 62.4455 71.731C62.4666 71.8095 62.4774 71.8904 62.4776 71.9718C62.491 72.0479 62.491 72.1258 62.4776 72.2019C62.4597 72.2695 62.4327 72.3343 62.3973 72.3946C62.3391 72.5058 62.2568 72.6027 62.1565 72.6782C62.0194 72.7875 61.8543 72.8561 61.6801 72.8762C61.6341 72.8839 61.5871 72.8839 61.541 72.8762H61.359Z" fill="#263238"/>
<path d="M61.4446 72.9725H61.3429C61.3269 72.9702 61.3119 72.9635 61.2996 72.9531C61.2873 72.9427 61.2782 72.929 61.2733 72.9136C61.2658 72.9006 61.2618 72.8858 61.2618 72.8708C61.2618 72.8558 61.2658 72.841 61.2733 72.828C61.286 72.8225 61.2996 72.8197 61.3134 72.8197C61.3272 72.8197 61.3409 72.8225 61.3536 72.828C61.4052 72.8328 61.4572 72.8328 61.5088 72.828C61.6637 72.8037 61.8095 72.7391 61.9316 72.6407C62.0196 72.5726 62.0925 72.4869 62.1457 72.3891C62.1748 72.3328 62.1982 72.2736 62.2152 72.2125C62.2231 72.1468 62.2231 72.0803 62.2152 72.0145C62.2106 71.9441 62.1998 71.8743 62.1831 71.8058C62.1617 71.731 62.1311 71.6591 62.0921 71.5917C62.0089 71.4488 61.8837 71.3348 61.7336 71.2653C61.7173 71.2572 61.7033 71.245 61.693 71.2301C61.6827 71.2151 61.6764 71.1977 61.6747 71.1796C61.6784 71.0703 61.6512 70.9621 61.5963 70.8675C61.5414 70.7729 61.461 70.6956 61.3643 70.6444C61.2572 70.5932 61.1369 70.5765 61.0199 70.5966C60.903 70.6168 60.7951 70.6727 60.7114 70.7568C60.6981 70.7634 60.6834 70.7669 60.6686 70.7669C60.6537 70.7669 60.639 70.7634 60.6257 70.7568C60.6111 70.7524 60.5979 70.7441 60.5875 70.7328C60.5772 70.7215 60.57 70.7076 60.5669 70.6926V70.6605C60.5238 70.4756 60.4358 70.3042 60.3107 70.1614C60.1856 70.0186 60.0273 69.9088 59.8497 69.8417C59.7577 69.8024 59.6603 69.7771 59.5607 69.7667H59.3734C59.3396 69.7642 59.3056 69.7642 59.2717 69.7667C59.0738 69.7971 58.8884 69.8824 58.7365 70.0129C58.597 70.1315 58.4854 70.2795 58.4101 70.4464C58.3386 70.6022 58.3055 70.7729 58.3137 70.9441C58.3142 70.9574 58.3115 70.9707 58.3059 70.9827C58.3003 70.9948 58.292 71.0054 58.2816 71.0137C58.2701 71.0198 58.2572 71.023 58.2442 71.023C58.2311 71.023 58.2182 71.0198 58.2067 71.0137C58.0263 70.971 57.8366 70.9937 57.6715 71.0779C57.5912 71.1165 57.5173 71.1671 57.4521 71.2278C57.3904 71.2847 57.3364 71.3495 57.2915 71.4205C57.2539 71.4878 57.2251 71.5598 57.2059 71.6345C57.193 71.7035 57.193 71.7743 57.2059 71.8433C57.2136 71.9735 57.2521 72.1001 57.3183 72.2125C57.4092 72.3734 57.5475 72.5023 57.7143 72.5818C57.7681 72.6041 57.8236 72.622 57.8802 72.6353C57.8951 72.6365 57.9095 72.641 57.9225 72.6484C57.9354 72.6558 57.9466 72.6659 57.9552 72.6781C57.9629 72.7007 57.9629 72.7252 57.9552 72.7477C57.9467 72.7695 57.9307 72.7874 57.91 72.7983C57.8894 72.8091 57.8655 72.8121 57.8428 72.8066H57.8H57.7197L57.6394 72.7745C57.4379 72.6832 57.2696 72.5318 57.1577 72.341C57.0767 72.2037 57.0273 72.0502 57.0132 71.8914C57.0008 71.8027 57.0008 71.7126 57.0132 71.6238C57.0329 71.5281 57.0672 71.4361 57.1149 71.3509C57.1706 71.2627 57.2372 71.1818 57.3129 71.11C57.3924 71.0386 57.4805 70.9775 57.5752 70.9281C57.7418 70.8486 57.9262 70.8136 58.1104 70.8264C58.1191 70.6639 58.1572 70.5044 58.2228 70.3554C58.3092 70.1517 58.4389 69.9691 58.6027 69.8203C58.776 69.6701 58.9869 69.5702 59.2129 69.5313C59.2555 69.5254 59.2987 69.5254 59.3413 69.5313H59.4697H59.5661C59.6817 69.5417 59.7953 69.5687 59.9032 69.6115C60.0865 69.6849 60.2525 69.7956 60.3907 69.9365C60.5289 70.0775 60.6363 70.2457 60.706 70.4304C60.8182 70.3581 60.9471 70.3161 61.0803 70.3086C61.2136 70.3011 61.3464 70.3283 61.466 70.3876C61.587 70.4504 61.6896 70.5436 61.7637 70.6581C61.8378 70.7726 61.8809 70.9043 61.8888 71.0405C62.0476 71.132 62.1803 71.2629 62.2741 71.4205C62.3214 71.5014 62.3591 71.5877 62.3865 71.6774C62.4076 71.7651 62.4201 71.8547 62.424 71.9449C62.4238 72.028 62.413 72.1108 62.3919 72.1911C62.3729 72.2702 62.3422 72.3459 62.3009 72.4159C62.2335 72.5332 62.1445 72.6368 62.0386 72.721C61.8837 72.8418 61.6986 72.9177 61.5034 72.9404L61.4446 72.9725Z" fill="#263238"/>
<path d="M59.3092 72.2607C59.2372 72.4079 59.1568 72.5509 59.0684 72.6889C58.9881 72.8336 58.8987 72.973 58.8008 73.1063C58.8682 72.9551 58.9488 72.81 59.0416 72.6728C59.1204 72.529 59.2098 72.3912 59.3092 72.2607Z" fill="#263238"/>
<path d="M58.8062 73.1971C58.7904 73.2017 58.7737 73.2017 58.758 73.1971C58.6724 73.1436 58.6724 73.1275 58.9667 72.6619C59.2611 72.1963 59.2504 72.2177 59.2878 72.207C59.3085 72.1992 59.3314 72.1992 59.3521 72.207C59.3718 72.2197 59.3868 72.2385 59.3949 72.2605C59.3949 72.298 59.3949 72.3194 59.1433 72.7583C58.8918 73.1971 58.8597 73.1971 58.8062 73.1971Z" fill="#263238"/>
<path d="M60.1066 72.2607C60.0345 72.4079 59.9541 72.5509 59.8657 72.6889C59.7854 72.8336 59.6961 72.973 59.5981 73.1063C59.6649 72.9558 59.7437 72.8108 59.8336 72.6728C59.9152 72.5295 60.0064 72.3918 60.1066 72.2607Z" fill="#263238"/>
<path d="M59.5982 73.1917H59.55C59.4698 73.1382 59.4697 73.1275 59.7641 72.6566C60.0585 72.1856 60.0478 72.2124 60.0852 72.2017C60.1059 72.1938 60.1287 72.1938 60.1494 72.2017C60.2297 72.2498 60.2297 72.2659 59.9407 72.7368C59.6517 73.2078 59.6571 73.181 59.6196 73.1917H59.5982Z" fill="#263238"/>
<path d="M60.8988 72.2607C60.8326 72.4099 60.7538 72.5531 60.6633 72.6889C60.5825 72.8344 60.4912 72.9739 60.3904 73.1063C60.463 72.9577 60.5434 72.813 60.6312 72.6728C60.7122 72.5303 60.8016 72.3927 60.8988 72.2607Z" fill="#263238"/>
<path d="M60.4009 73.1971H60.3474C60.2671 73.1436 60.2671 73.1275 60.5561 72.6619C60.8451 72.1963 60.8397 72.2177 60.8772 72.207C60.8997 72.1992 60.9242 72.1992 60.9468 72.207C60.9651 72.2199 60.9784 72.2388 60.9842 72.2605C60.9842 72.298 60.9842 72.3194 60.7327 72.7582C60.4812 73.1971 60.4491 73.1971 60.4009 73.1971Z" fill="#263238"/>
<path d="M58.3886 73.4434C58.316 73.592 58.2356 73.7367 58.1477 73.8769C58.0683 74.0203 57.9789 74.158 57.8801 74.289C57.9476 74.1405 58.0264 73.9973 58.1156 73.8608C58.198 73.7163 58.2892 73.5768 58.3886 73.4434Z" fill="#263238"/>
<path d="M57.8803 74.3797H57.8321C57.8138 74.3668 57.8006 74.3479 57.7947 74.3262C57.7947 74.2887 57.7947 74.2727 58.0462 73.8285C58.2978 73.3843 58.3459 73.3361 58.4315 73.3896C58.5118 73.4378 58.5118 73.4539 58.2228 73.9248C57.9338 74.3958 57.9392 74.369 57.9017 74.3797H57.8803Z" fill="#263238"/>
<path d="M59.1808 73.4434C59.114 73.5939 59.0353 73.7389 58.9453 73.8769C58.8653 74.0212 58.774 74.159 58.6724 74.289C58.6724 74.289 58.7741 74.0909 58.9132 73.8608C58.995 73.7171 59.0844 73.5777 59.1808 73.4434Z" fill="#263238"/>
<path d="M58.6777 74.3801H58.6295C58.6196 74.3746 58.6111 74.3669 58.6046 74.3577C58.5981 74.3484 58.5938 74.3378 58.592 74.3266C58.592 74.2891 58.592 74.2731 58.8382 73.8342C59.0844 73.3954 59.1433 73.3365 59.2289 73.39C59.3092 73.4382 59.3092 73.4543 59.0148 73.9252C58.7205 74.3962 58.7312 74.3694 58.6937 74.3801H58.6777Z" fill="#263238"/>
<path d="M59.9782 73.4434C59.8283 73.7366 59.6584 74.0191 59.4697 74.289C59.4697 74.289 59.5714 74.0909 59.7106 73.8608C59.7924 73.7171 59.8817 73.5777 59.9782 73.4434Z" fill="#263238"/>
<path d="M59.4696 74.3797C59.4559 74.3851 59.4406 74.3851 59.4268 74.3797C59.4164 74.3742 59.4072 74.3666 59.3998 74.3574C59.3925 74.3482 59.3871 74.3376 59.384 74.3262C59.384 74.2887 59.384 74.2727 59.6356 73.8285C59.8871 73.3843 59.9406 73.3361 60.0209 73.3896C60.1065 73.4378 60.1065 73.4539 59.8122 73.9248C59.5178 74.3958 59.5285 74.369 59.4911 74.3797H59.4696Z" fill="#263238"/>
<path d="M60.8077 73.4648C60.7415 73.614 60.6628 73.7572 60.5723 73.893C60.4278 74.1285 60.31 74.3158 60.3047 74.3104C60.3715 74.1599 60.4502 74.0149 60.5402 73.8769C60.6212 73.7344 60.7105 73.5968 60.8077 73.4648Z" fill="#263238"/>
<path d="M60.3098 74.4015H60.2563C60.176 74.348 60.176 74.3319 60.465 73.8663C60.754 73.4007 60.754 73.4221 60.7861 73.4114C60.8086 73.4032 60.8332 73.4032 60.8557 73.4114C60.8741 73.4243 60.8873 73.4433 60.8932 73.4649C60.8932 73.5024 60.8932 73.5238 60.647 73.9626C60.4008 74.4015 60.3633 74.4015 60.3098 74.4015Z" fill="#263238"/>
<path d="M45.421 69.0493V74.9845H44.8109V69.5899H43.4087V69.0547L45.421 69.0493Z" fill="#263238"/>
<path d="M51.3991 73.3311C51.3991 74.4015 50.5107 75.0383 49.0924 75.0383C47.6742 75.0383 46.8019 74.3854 46.8019 73.3311C46.7979 72.9936 46.9092 72.6648 47.1175 72.3991C47.3257 72.1334 47.6184 71.9468 47.9472 71.87C47.6717 71.7822 47.4321 71.6075 47.2642 71.3721C47.0963 71.1367 47.0092 70.8532 47.0159 70.5642C47.0159 69.6009 47.8401 68.9961 49.0924 68.9961C50.3448 68.9961 51.1904 69.6009 51.1904 70.5642C51.1948 70.8558 51.1043 71.1409 50.9324 71.3764C50.7606 71.612 50.5167 71.7853 50.2377 71.87C50.568 71.9463 50.8627 72.1323 51.0737 72.3977C51.2846 72.6631 51.3993 72.9921 51.3991 73.3311ZM50.7729 73.3311C50.7729 72.5979 50.1468 72.143 49.0924 72.143C48.0381 72.143 47.4227 72.5979 47.4227 73.3311C47.4227 74.0643 48.0435 74.5246 49.0924 74.5246C50.1414 74.5246 50.7729 74.0589 50.7729 73.3257V73.3311ZM49.0924 71.656C50.0183 71.656 50.5696 71.2439 50.5696 70.5856C50.5696 69.9273 49.9862 69.5152 49.0924 69.5152C48.1987 69.5152 47.626 69.922 47.626 70.5856C47.626 71.2492 48.1666 71.6506 49.0924 71.6506V71.656Z" fill="#263238"/>
<path d="M52.1644 70.0075C52.1407 69.7123 52.2066 69.4168 52.3535 69.1597C52.5004 68.9025 52.7214 68.6957 52.9877 68.5662C53.2541 68.4367 53.5532 68.3905 53.8462 68.4337C54.1392 68.4769 54.4123 68.6075 54.6298 68.8084C54.8474 69.0093 54.9993 69.2712 55.0657 69.5598C55.1321 69.8484 55.1099 70.1503 55.002 70.4261C54.8941 70.7018 54.7055 70.9386 54.4608 71.1055C54.2162 71.2724 53.9269 71.3616 53.6308 71.3615C53.4439 71.3762 53.256 71.3522 53.0789 71.2909C52.9018 71.2295 52.7393 71.1322 52.6016 71.0051C52.4639 70.8779 52.3539 70.7236 52.2787 70.552C52.2035 70.3803 52.1645 70.1949 52.1644 70.0075ZM54.6583 70.0075C54.669 69.8023 54.618 69.5986 54.5118 69.4228C54.4056 69.2469 54.2491 69.1069 54.0625 69.0208C53.876 68.9348 53.6679 68.9067 53.4652 68.9401C53.2624 68.9735 53.0744 69.0669 52.9253 69.2082C52.7762 69.3495 52.6729 69.5323 52.6287 69.733C52.5845 69.9336 52.6015 70.1429 52.6774 70.3338C52.7534 70.5247 52.8848 70.6884 53.0547 70.8039C53.2247 70.9194 53.4253 70.9812 53.6308 70.9815C53.7637 70.9912 53.8971 70.9731 54.0226 70.9283C54.1481 70.8835 54.2629 70.813 54.3596 70.7213C54.4563 70.6297 54.5328 70.5188 54.5843 70.3959C54.6357 70.273 54.6609 70.1407 54.6583 70.0075Z" fill="#263238"/>
<path d="M36.2375 51.1958V62.5043H34.1396V52.9566H31.7473V51.1958H36.2375Z" fill="#263238"/>
<path d="M38.4851 56.8473C38.4851 53.1331 40.5188 51.0352 43.2001 51.0352C45.8814 51.0352 47.9365 53.1331 47.9365 56.8473C47.9365 60.5614 45.8974 62.6647 43.2001 62.6647C40.5028 62.6647 38.4851 60.5614 38.4851 56.8473ZM45.8171 56.8473C45.8171 54.1178 44.7468 52.8601 43.2001 52.8601C41.6534 52.8601 40.5991 54.1178 40.5991 56.8473C40.5991 59.5767 41.6695 60.8397 43.2001 60.8397C44.7307 60.8397 45.8171 59.5767 45.8171 56.8473Z" fill="#263238"/>
<path d="M49.2905 55.1185C49.279 54.9375 49.3047 54.756 49.3661 54.5853C49.4274 54.4146 49.5231 54.2583 49.6473 54.1261C49.7714 53.9938 49.9213 53.8883 50.0878 53.8163C50.2542 53.7442 50.4337 53.707 50.6151 53.707C50.7965 53.707 50.976 53.7442 51.1424 53.8163C51.3089 53.8883 51.4588 53.9938 51.5829 54.1261C51.7071 54.2583 51.8028 54.4146 51.8641 54.5853C51.9255 54.756 51.9512 54.9375 51.9397 55.1185C51.9512 55.2996 51.9255 55.481 51.8641 55.6517C51.8028 55.8224 51.7071 55.9787 51.5829 56.111C51.4588 56.2433 51.3089 56.3487 51.1424 56.4208C50.976 56.4928 50.7965 56.53 50.6151 56.53C50.4337 56.53 50.2542 56.4928 50.0878 56.4208C49.9213 56.3487 49.7714 56.2433 49.6473 56.111C49.5231 55.9787 49.4274 55.8224 49.3661 55.6517C49.3047 55.481 49.279 55.2996 49.2905 55.1185ZM49.2905 61.2732C49.279 61.0921 49.3047 60.9107 49.3661 60.74C49.4274 60.5693 49.5231 60.4129 49.6473 60.2807C49.7714 60.1484 49.9213 60.043 50.0878 59.9709C50.2542 59.8988 50.4337 59.8617 50.6151 59.8617C50.7965 59.8617 50.976 59.8988 51.1424 59.9709C51.3089 60.043 51.4588 60.1484 51.5829 60.2807C51.7071 60.4129 51.8028 60.5693 51.8641 60.74C51.9255 60.9107 51.9512 61.0921 51.9397 61.2732C51.9512 61.4542 51.9255 61.6356 51.8641 61.8063C51.8028 61.977 51.7071 62.1334 51.5829 62.2656C51.4588 62.3979 51.3089 62.5033 51.1424 62.5754C50.976 62.6475 50.7965 62.6846 50.6151 62.6846C50.4337 62.6846 50.2542 62.6475 50.0878 62.5754C49.9213 62.5033 49.7714 62.3979 49.6473 62.2656C49.5231 62.1334 49.4274 61.977 49.3661 61.8063C49.3047 61.6356 49.279 61.4542 49.2905 61.2732Z" fill="#263238"/>
<path d="M53.2991 56.8473C53.2991 53.1331 55.3328 51.0352 58.014 51.0352C60.6953 51.0352 62.7558 53.1331 62.7558 56.8473C62.7558 60.5614 60.7167 62.6647 58.0194 62.6647C55.3221 62.6647 53.2991 60.5614 53.2991 56.8473ZM60.6311 56.8473C60.6311 54.1178 59.5607 52.8601 58.014 52.8601C56.4674 52.8601 55.4131 54.1178 55.4131 56.8473C55.4131 59.5767 56.4834 60.8397 58.014 60.8397C59.5447 60.8397 60.615 59.5767 60.615 56.8473H60.6311Z" fill="#263238"/>
<path d="M64.1741 56.8473C64.1741 53.1331 66.2078 51.0352 68.889 51.0352C71.5703 51.0352 73.6201 53.1331 73.6201 56.8473C73.6201 60.5614 71.5864 62.6647 68.889 62.6647C66.1917 62.6647 64.1741 60.5614 64.1741 56.8473ZM71.5061 56.8473C71.5061 54.1178 70.4357 52.8601 68.889 52.8601C67.3424 52.8601 66.2881 54.1178 66.2881 56.8473C66.2881 59.5767 67.3584 60.8397 68.889 60.8397C70.4197 60.8397 71.5061 59.5767 71.5061 56.8473Z" fill="#263238"/>
<path d="M94.9472 88.7495H14.5731C12.1169 88.7495 10.1257 90.7407 10.1257 93.1969V112.924C10.1257 115.38 12.1169 117.371 14.5731 117.371H94.9472C97.4034 117.371 99.3945 115.38 99.3945 112.924V93.1969C99.3945 90.7407 97.4034 88.7495 94.9472 88.7495Z" fill="#FAFAFA"/>
<path d="M94.9471 117.372C94.9471 117.372 95.1504 117.372 95.5304 117.313C96.0973 117.233 96.6429 117.042 97.136 116.751C97.9426 116.278 98.5794 115.562 98.9556 114.706C99.1905 114.162 99.316 113.576 99.3249 112.983C99.3249 112.346 99.3249 111.661 99.3249 110.944C99.3249 108.054 99.3249 104.522 99.2928 100.422C99.2928 98.3743 99.2928 96.1854 99.2928 93.8555C99.3216 93.2757 99.2749 92.6946 99.1536 92.1269C99.0052 91.5533 98.7411 91.016 98.3776 90.5481C98.0026 90.0605 97.5269 89.6595 96.9829 89.3722C96.439 89.085 95.8395 88.9184 95.2254 88.8837L14.5891 88.9212C13.637 88.9221 12.7123 89.2403 11.9613 89.8256C11.2111 90.4043 10.6776 91.2187 10.4468 92.1376C10.3325 92.5958 10.2856 93.0681 10.3076 93.5398V97.8748C10.3076 101.714 10.3076 105.49 10.3076 109.205V111.977C10.3076 112.432 10.3076 112.903 10.3076 113.336C10.355 113.774 10.463 114.202 10.6287 114.61C10.9782 115.415 11.564 116.095 12.3085 116.559C13.0531 117.024 13.9212 117.251 14.7978 117.211H25.2928L61.5515 117.248L85.9934 117.302L92.6404 117.334H94.3691H94.9578H94.3691H92.6404L85.9934 117.366L61.5515 117.42L25.2928 117.516H14.7978C13.8651 117.554 12.9424 117.312 12.1486 116.82C11.3432 116.323 10.7099 115.591 10.3344 114.722C10.1523 114.285 10.0351 113.824 9.9865 113.352C9.94903 112.871 9.9865 112.421 9.95974 111.961V93.5398C9.93898 93.0396 9.9876 92.5389 10.1042 92.052C10.3602 91.0608 10.9378 90.1826 11.7465 89.5549C12.5552 88.9273 13.5493 88.5858 14.573 88.584L95.2361 88.6482C96.1966 88.7111 97.1125 89.0763 97.8528 89.6916C98.593 90.3069 99.1196 91.1406 99.357 92.0734C99.4839 92.6584 99.5325 93.2577 99.5015 93.8555C99.5015 96.1854 99.5015 98.3743 99.5015 100.422C99.5015 104.522 99.5015 108.054 99.4747 110.944C99.4747 111.661 99.4747 112.346 99.4747 112.983C99.4632 113.763 99.2477 114.526 98.8496 115.196C98.4514 115.867 97.8846 116.421 97.2056 116.804C96.7015 117.096 96.1417 117.278 95.5625 117.339C95.3587 117.368 95.1528 117.379 94.9471 117.372Z" fill="#263238"/>
<path d="M92.9671 94.6739C92.9453 94.674 92.9236 94.6699 92.9034 94.6616C92.8832 94.6533 92.8649 94.6412 92.8494 94.6258C92.8199 94.5958 92.8035 94.5554 92.8035 94.5134C92.8035 94.4713 92.8199 94.431 92.8494 94.401L95.049 92.2924C95.0795 92.2625 95.1206 92.2461 95.1632 92.2466C95.2059 92.2471 95.2466 92.2645 95.2764 92.295C95.3062 92.3256 95.3227 92.3667 95.3222 92.4093C95.3217 92.452 95.3043 92.4927 95.2737 92.5225L93.0741 94.6311C93.0453 94.6586 93.007 94.6739 92.9671 94.6739Z" fill="#263238"/>
<path d="M95.1559 94.6847C95.1145 94.6845 95.0745 94.6693 95.0435 94.6419L92.8653 92.5011C92.8501 92.4866 92.838 92.4692 92.8297 92.4499C92.8214 92.4306 92.8171 92.4098 92.8171 92.3888C92.8171 92.3677 92.8214 92.3469 92.8297 92.3276C92.838 92.3083 92.8501 92.2909 92.8653 92.2764C92.8953 92.2469 92.9357 92.2305 92.9777 92.2305C93.0197 92.2305 93.0601 92.2469 93.0901 92.2764L95.2683 94.4171C95.2903 94.4395 95.3052 94.4679 95.3112 94.4988C95.3172 94.5296 95.3141 94.5616 95.3021 94.5906C95.2901 94.6197 95.2699 94.6446 95.2439 94.6623C95.2179 94.68 95.1873 94.6896 95.1559 94.6901V94.6847Z" fill="#263238"/>
<path d="M29.3603 108.621L28.4665 107.347C27.9254 106.58 27.6339 105.664 27.6316 104.725V101.867C27.6315 100.754 27.2325 99.6772 26.5069 98.8328C25.7813 97.9884 24.7772 97.432 23.6766 97.2643V95.8996C23.6766 95.7335 23.6106 95.5743 23.4932 95.4568C23.3758 95.3394 23.2165 95.2734 23.0504 95.2734C22.8844 95.2734 22.7251 95.3394 22.6077 95.4568C22.4902 95.5743 22.4243 95.7335 22.4243 95.8996V97.2429C21.2899 97.3755 20.2438 97.9204 19.485 98.7739C18.7262 99.6275 18.3075 100.73 18.3087 101.872V104.832C18.3083 105.849 17.9672 106.836 17.34 107.636L16.5693 108.621H29.3603Z" fill="#0067A0"/>
<path d="M22.2904 110.698C22.6381 110.838 23.018 110.879 23.3877 110.816C23.7573 110.753 24.102 110.588 24.383 110.339C24.6252 110.118 24.8091 109.84 24.9182 109.531L21.1719 109.504C21.265 109.77 21.4125 110.014 21.6051 110.219C21.7978 110.425 22.0312 110.588 22.2904 110.698Z" fill="#0067A0"/>
<path d="M79.5821 98.4203C79.5821 98.5113 69.5848 98.5862 57.2488 98.5862C44.9128 98.5862 34.9155 98.5113 34.9155 98.4203C34.9155 98.3293 44.9128 98.2544 57.2488 98.2544C69.5848 98.2544 79.5821 98.3293 79.5821 98.4203Z" fill="#263238"/>
<path d="M90.1091 103.826C90.1091 103.917 77.7517 103.992 62.515 103.992C47.2783 103.992 34.9155 103.917 34.9155 103.826C34.9155 103.735 47.2676 103.66 62.515 103.66C77.7624 103.66 90.1091 103.735 90.1091 103.826Z" fill="#E0E0E0"/>
<path d="M90.1091 107.064C90.1091 107.155 77.7517 107.23 62.515 107.23C47.2783 107.23 34.9155 107.155 34.9155 107.064C34.9155 106.973 47.2676 106.898 62.515 106.898C77.7624 106.898 90.1091 106.973 90.1091 107.064Z" fill="#E0E0E0"/>
<path d="M94.6046 121.824H14.9049C12.4487 121.824 10.4575 123.815 10.4575 126.272V145.779C10.4575 148.235 12.4487 150.226 14.9049 150.226H94.6046C97.0608 150.226 99.052 148.235 99.052 145.779V126.272C99.052 123.815 97.0608 121.824 94.6046 121.824Z" fill="#FAFAFA"/>
<path d="M94.61 150.226C94.61 150.226 94.808 150.226 95.1934 150.168C95.7588 150.098 96.3047 149.916 96.7989 149.632C97.6 149.165 98.2358 148.46 98.6186 147.615C98.8547 147.076 98.9838 146.496 98.9986 145.907V143.884C98.9986 141.016 98.9986 137.516 98.9664 133.448C98.9664 131.415 98.9664 129.244 98.9664 126.935C98.9955 126.359 98.9488 125.781 98.8273 125.217C98.6792 124.649 98.419 124.116 98.062 123.649C97.6915 123.164 97.2214 122.763 96.6832 122.474C96.1451 122.185 95.5513 122.015 94.9419 121.974L14.9264 122.006C13.9836 122.006 13.0671 122.317 12.3191 122.891C11.571 123.464 11.0333 124.269 10.7894 125.18C10.671 125.634 10.6223 126.103 10.6449 126.571V128.011C10.6449 128.969 10.6449 129.922 10.6449 130.874V144.864C10.6449 145.319 10.6449 145.784 10.6449 146.213C10.6916 146.647 10.7997 147.072 10.966 147.476C11.3061 148.278 11.8829 148.957 12.6192 149.423C13.3555 149.888 14.2164 150.118 15.0869 150.082H25.4856L61.4607 150.119L85.7153 150.173L92.3141 150.205H94.0267H94.61H94.0267H92.3141L85.7153 150.237L61.4607 150.291L25.4856 150.328H15.0869C14.1628 150.378 13.2446 150.152 12.4485 149.681C11.6518 149.182 11.0264 148.452 10.6556 147.588C10.4785 147.153 10.3615 146.695 10.3077 146.229C10.2756 145.752 10.3077 145.308 10.3077 144.848V142.097C10.3077 138.415 10.3077 134.669 10.3077 130.858V126.577C10.2898 126.079 10.3439 125.582 10.4683 125.1C10.7344 124.12 11.3146 123.255 12.12 122.637C12.9254 122.019 13.9113 121.683 14.9264 121.68L94.9579 121.744C95.9109 121.815 96.8172 122.185 97.549 122.799C98.2807 123.414 98.8009 124.243 99.036 125.169C99.1613 125.751 99.2081 126.346 99.1751 126.941C99.1751 129.245 99.1751 131.416 99.1751 133.454C99.1751 137.521 99.1752 141.021 99.1484 143.89C99.1484 144.607 99.1484 145.281 99.1484 145.918C99.1338 146.52 98.9953 147.112 98.7417 147.658C98.3483 148.517 97.6924 149.229 96.8685 149.691C96.368 149.982 95.8119 150.165 95.2362 150.226C95.0279 150.246 94.8183 150.246 94.61 150.226Z" fill="#263238"/>
<path d="M92.678 127.684C92.6454 127.685 92.6134 127.676 92.5863 127.658C92.5591 127.64 92.538 127.614 92.5258 127.584C92.5137 127.554 92.5109 127.521 92.518 127.489C92.5251 127.457 92.5417 127.428 92.5656 127.406L94.7491 125.319C94.7792 125.289 94.8195 125.273 94.8615 125.273C94.9036 125.273 94.9439 125.289 94.9739 125.319C94.9892 125.333 95.0013 125.351 95.0095 125.37C95.0178 125.389 95.0221 125.41 95.0221 125.431C95.0221 125.452 95.0178 125.473 95.0095 125.492C95.0013 125.512 94.9892 125.529 94.9739 125.544L92.785 127.684C92.7504 127.697 92.7126 127.697 92.678 127.684Z" fill="#263238"/>
<path d="M94.8669 127.717C94.8459 127.717 94.8251 127.712 94.8058 127.704C94.7864 127.696 94.769 127.684 94.7545 127.668L92.6138 125.56C92.5843 125.53 92.5679 125.489 92.5679 125.447C92.5679 125.405 92.5843 125.365 92.6138 125.335C92.6447 125.305 92.6859 125.289 92.7288 125.289C92.7717 125.289 92.813 125.305 92.8439 125.335L94.9846 127.444C95.0144 127.475 95.031 127.516 95.031 127.559C95.031 127.602 95.0144 127.643 94.9846 127.674C94.9689 127.688 94.9503 127.7 94.9301 127.707C94.9099 127.714 94.8884 127.718 94.8669 127.717Z" fill="#263238"/>
<path d="M29.5745 141.546L28.6807 140.283C28.1447 139.521 27.8569 138.613 27.8565 137.682V134.845C27.8565 133.74 27.4609 132.672 26.7413 131.834C26.0217 130.995 25.0257 130.442 23.9336 130.275V128.921C23.9336 128.839 23.9174 128.758 23.8859 128.682C23.8543 128.606 23.8081 128.537 23.7499 128.48C23.6917 128.422 23.6226 128.376 23.5467 128.346C23.4707 128.315 23.3894 128.299 23.3074 128.3C23.2259 128.3 23.1452 128.316 23.0699 128.347C22.9946 128.378 22.9261 128.424 22.8685 128.482C22.8108 128.539 22.7651 128.608 22.7339 128.683C22.7027 128.758 22.6866 128.839 22.6866 128.921V130.253C21.5613 130.387 20.524 130.929 19.7714 131.776C19.0188 132.623 18.6031 133.717 18.6032 134.85V137.789C18.6039 138.797 18.2666 139.777 17.6452 140.572L16.8799 141.546H29.5745Z" fill="#E0E0E0"/>
<path d="M22.5366 143.606C22.8822 143.743 23.259 143.783 23.6254 143.719C23.9918 143.656 24.3337 143.493 24.6131 143.247C24.8567 143.03 25.0409 142.753 25.1483 142.445L21.4502 142.418C21.5392 142.68 21.6817 142.922 21.8687 143.126C22.0557 143.331 22.2831 143.494 22.5366 143.606Z" fill="#E0E0E0"/>
<path d="M79.3945 131.431C79.3945 131.522 69.4722 131.596 57.2325 131.596C44.9929 131.596 35.0652 131.522 35.0652 131.431C35.0652 131.34 44.9875 131.265 57.2325 131.265C69.4776 131.265 79.3945 131.329 79.3945 131.431Z" fill="#263238"/>
<path d="M89.8413 136.783C89.8413 136.879 77.5803 136.954 62.4559 136.954C47.3316 136.954 35.0652 136.879 35.0652 136.783C35.0652 136.686 47.3263 136.617 62.4559 136.617C77.5856 136.617 89.8413 136.692 89.8413 136.783Z" fill="#E0E0E0"/>
<path d="M89.8413 139.994C89.8413 140.085 77.5803 140.159 62.4559 140.159C47.3316 140.159 35.0652 140.085 35.0652 139.994C35.0652 139.903 47.3263 139.828 62.4559 139.828C77.5856 139.828 89.8413 139.908 89.8413 139.994Z" fill="#E0E0E0"/>
</svg>
