<svg width="83" height="72" viewBox="0 0 83 72" fill="none" xmlns="http://www.w3.org/2000/svg">
<path d="M6.79599 37.8037H6.92643C6.95706 37.8223 6.99847 37.8445 7.04848 37.863L7.06535 37.8798L7.1825 37.997H7.27912L7.37575 38.0936H7.54143H7.63806H8.02535H8.41264H8.50927C8.51064 38.0936 8.51267 38.0937 8.51531 38.0937C8.54725 38.0945 8.66823 38.0976 8.78478 38.0393C8.81143 38.026 8.83483 38.0113 8.85484 37.997H8.89577C8.99396 37.997 9.083 37.9704 9.15893 37.9249C9.17212 37.917 9.18452 37.9087 9.19595 37.9004H9.35133L9.46849 37.7832L9.49559 37.7561C9.50018 37.754 9.50481 37.7518 9.50947 37.7494C9.569 37.7197 9.6407 37.6687 9.69662 37.5848C9.70476 37.5726 9.71225 37.5602 9.7191 37.5476C9.77505 37.517 9.83898 37.4679 9.88986 37.3916C9.90439 37.3698 9.91682 37.3473 9.92729 37.3244L16.051 31.2007C16.9818 30.2698 16.9818 28.8547 16.051 27.9238L15.7682 28.2067L16.051 27.9238C15.1202 26.993 13.7051 26.993 12.7742 27.9238L13.057 28.2067L12.7742 27.9238L11.1615 29.5366C13.9673 15.7248 26.2869 5.27354 41.0409 5.27354C54.9946 5.27354 67.2256 14.735 70.6656 28.2079L70.6673 28.2143C71.0141 29.4854 72.2953 30.2033 73.487 29.8487C74.7536 29.5003 75.4691 28.2236 75.1179 27.0345C71.1977 11.4653 57.097 0.6 41.0422 0.6C23.6205 0.6 9.03761 13.2771 6.21954 29.985L4.75707 28.2439C3.94007 27.2012 2.42787 27.0769 1.48045 27.8964C0.43921 28.7147 0.316754 30.2273 1.13826 31.1737L6.16801 37.3645L6.18102 37.3805L6.19561 37.3951L6.29224 37.4917L6.40805 37.6075L6.52852 37.6085C6.53269 37.6105 6.53755 37.6129 6.54352 37.6159L6.54751 37.6179C6.56935 37.6288 6.61023 37.6492 6.65462 37.6658C6.65642 37.6665 6.65825 37.6672 6.66011 37.6678L6.67884 37.6866L6.79599 37.8037Z" fill="white" stroke="white" stroke-width="0.8"/>
<path d="M72.7997 34.306V33.906C72.7996 33.906 72.7994 33.906 72.7993 33.906M72.7997 34.306L72.7993 33.906M72.7997 34.306C72.7997 33.906 72.7995 33.906 72.7993 33.906M72.7997 34.306L72.7993 33.906M75.5948 34.2165L75.312 34.4993C75.5948 34.2165 75.5947 34.2164 75.5947 34.2163L75.5945 34.2162L75.5942 34.2159L75.5936 34.2153L75.5923 34.2139L75.589 34.2108L75.5806 34.2027C75.5741 34.1967 75.5657 34.1891 75.5557 34.1805C75.5361 34.1637 75.508 34.1412 75.4735 34.1182C75.4429 34.0978 75.3904 34.0654 75.3218 34.0401L75.3049 34.0232L75.1878 33.906H75.0324C75.021 33.8978 75.0086 33.8894 74.9954 33.8815C74.9194 33.836 74.8304 33.8094 74.7322 33.8094H74.6356H74.608L74.5114 33.7128H74.3457H74.2491H74.1525H73.9592H73.766H73.5727H73.4761H73.3795C73.3781 33.7128 73.3761 33.7127 73.3734 33.7127C73.3415 33.7119 73.2205 33.7088 73.104 33.7671C73.0773 33.7804 73.0539 33.7951 73.0339 33.8094H72.993C72.8948 33.8094 72.8057 33.836 72.7298 33.8815C72.7072 33.8951 72.6869 33.9099 72.6698 33.9236C72.6411 33.9312 72.6077 33.9428 72.5725 33.9603C72.5193 33.987 72.4564 34.0305 72.4037 34.0993H72.3441L72.227 34.2165L72.1999 34.2436C72.1953 34.2457 72.1907 34.2479 72.186 34.2502C72.1265 34.28 72.0548 34.3309 71.9989 34.4148C71.9839 34.4372 71.9712 34.4604 71.9605 34.484L66.1212 40.4115C66.1209 40.4119 66.1205 40.4123 66.1201 40.4127C65.1904 41.3435 65.1908 42.7579 66.1212 43.6884C66.5813 44.1484 67.166 44.3861 67.7592 44.3861C68.3524 44.3861 68.9372 44.1484 69.3972 43.6884L69.1144 43.4055L69.3972 43.6884L71.0022 42.0834C68.1115 55.9854 55.7909 66.4347 41.0385 66.4347C27.0848 66.4347 14.8538 56.9733 11.4138 43.5004L11.4138 43.5004L11.4121 43.494C11.0653 42.2229 9.78414 41.5049 8.59236 41.8596C7.32576 42.208 6.61024 43.4848 6.96153 44.6738C10.8818 60.2422 24.9832 71.1083 41.0373 71.1083C58.459 71.1083 73.0418 58.4311 75.8599 41.7233L77.3209 43.4625C77.3219 43.4638 77.3229 43.465 77.3239 43.4663C77.8076 44.0679 78.5182 44.2905 79.1824 44.2905C79.6254 44.2905 80.2033 44.1817 80.681 43.8232L80.6915 43.8153L80.7015 43.8067C81.1397 43.4305 81.3683 42.8585 81.3969 42.2885C81.4148 41.931 81.3552 41.5577 81.2068 41.212L81.3077 41.2L80.8497 40.6364L75.8156 34.4403L75.8026 34.4243L75.788 34.4097L75.5948 34.2165ZM75.1178 33.9808C75.1179 33.9809 75.1171 33.9802 75.1152 33.9784C75.1169 33.9799 75.1178 33.9808 75.1178 33.9808ZM72.6073 33.9808C72.6074 33.9808 72.6083 33.9799 72.6099 33.9784C72.6081 33.9802 72.6073 33.9809 72.6073 33.9808ZM72.7989 33.906L72.7982 33.906L72.7989 33.906Z" fill="white" stroke="white" stroke-width="0.8"/>
</svg>
