<svg width="479" height="340" viewBox="0 0 479 340" fill="none" xmlns="http://www.w3.org/2000/svg">
<path d="M113.337 40.4761L143.103 70.2419L113.337 100.008L83.5716 70.2419L113.337 40.4761Z" fill="#F4F4F4"/>
<path d="M444.974 129.524L464.901 149.451L444.974 169.377L425.048 149.451L444.974 129.524Z" fill="#FCCB5E"/>
<mask id="mask0_164_8904" style="mask-type:alpha" maskUnits="userSpaceOnUse" x="0" y="0" width="228" height="340">
<path d="M0 0H228V340H0V0Z" fill="url(#paint0_linear_164_8904)"/>
</mask>
<g mask="url(#mask0_164_8904)">
<path d="M122.512 194.43C99.96 192.344 77.3604 197.884 58.3299 210.162C39.2993 222.441 24.938 240.749 17.5443 262.156C10.1507 283.563 10.1522 306.832 17.5486 328.238C24.945 349.644 39.3087 367.95 58.3408 380.226C77.373 392.502 99.9733 398.039 122.525 395.95C145.076 393.861 166.275 384.267 182.728 368.703C199.181 353.14 209.938 332.507 213.276 310.106C216.614 287.706 212.341 264.833 201.141 245.148L113.191 295.191L122.512 194.43Z" fill="#EEEEEE"/>
</g>
<path d="M478.476 72.0476C478.476 78.754 473.04 84.1905 466.333 84.1905C459.627 84.1905 454.19 78.754 454.19 72.0476C454.19 65.3413 459.627 59.9048 466.333 59.9048C473.04 59.9048 478.476 65.3413 478.476 72.0476Z" fill="#FB9448"/>
<defs>
<linearGradient id="paint0_linear_164_8904" x1="-198.816" y1="-179.392" x2="464.711" y2="595.46" gradientUnits="userSpaceOnUse">
<stop stop-color="#FCD561"/>
<stop offset="1" stop-color="#EBA43A"/>
</linearGradient>
</defs>
</svg>
