<svg width="40" height="41" viewBox="0 0 40 41" fill="none" xmlns="http://www.w3.org/2000/svg">
<path d="M28.8901 18.8699C31.3915 18.8679 33.79 17.8729 35.5581 16.1032C37.3259 14.3335 38.319 11.9341 38.3181 9.43277C38.3178 6.93102 37.3235 4.53213 35.5546 2.76316C33.786 0.994586 31.3871 0.000405434 28.8854 4.72183e-07C26.384 -0.000790519 23.9847 0.992237 22.2149 2.76002C20.4453 4.52818 19.4499 6.92667 19.4482 9.42802C19.4467 11.9325 20.4413 14.335 22.2122 16.1059C23.9831 17.8768 26.3856 18.8714 28.8901 18.8699ZM25.4448 7.78104L28.2839 10.0328L32.0512 5.19384L34.0341 6.73502L28.7086 13.5743L23.8831 9.74652L25.4448 7.78104Z" fill="white"/>
<path d="M39.8788 13.3748C39.0467 15.6305 37.5451 17.5774 35.5748 18.9548C33.6046 20.3322 31.2603 21.0738 28.8562 21.0805C24.8888 21.1473 21.1627 19.1826 18.9761 15.8713L8.89563 15.9247C8.22255 15.9239 7.56483 16.1252 7.0077 16.5025C6.45048 16.8798 6.01942 17.416 5.77065 18.0409L3.45204 24.4317L1.22596 25.0533V25.0529C0.875184 25.1538 0.566319 25.3654 0.34525 25.656C0.124182 25.9467 0.00316883 26.301 0 26.6661V30.947H0.0170052V35.1473H4.59064C5.08222 33.8386 6.08748 32.7879 7.37273 32.2386C8.65838 31.6893 10.1125 31.6893 11.3978 32.2386C12.6832 32.788 13.6884 33.8388 14.1799 35.1473H25.8236C26.3152 33.8386 27.32 32.7879 28.6057 32.2386C29.8909 31.6893 31.3452 31.6893 32.6308 32.2386C33.9161 32.788 34.921 33.8388 35.4126 35.1473H40C40 35.1473 39.9454 13.6438 39.8786 13.3745L39.8788 13.3748ZM15.6833 25.1024H6.7793L8.89584 19.2803H15.6837L15.6833 25.1024Z" fill="white"/>
<path d="M12.8609 36.9434C12.8609 38.8575 11.3091 40.4093 9.39506 40.4093C7.48101 40.4093 5.9292 38.8575 5.9292 36.9434C5.9292 35.0294 7.48101 33.4775 9.39506 33.4775C11.3091 33.4775 12.8609 35.0294 12.8609 36.9434Z" fill="white"/>
<path d="M34.2154 36.9434C34.2154 38.8575 32.6636 40.4093 30.7496 40.4093C28.8355 40.4093 27.2837 38.8575 27.2837 36.9434C27.2837 35.0294 28.8355 33.4775 30.7496 33.4775C32.6636 33.4775 34.2154 35.0294 34.2154 36.9434Z" fill="white"/>
</svg>
