<svg width="30" height="39" viewBox="0 0 30 39" fill="none" xmlns="http://www.w3.org/2000/svg">
<path d="M29.1375 10.0115H24.9989V3.85552C24.9989 1.72923 23.2692 0 21.1433 0H8.85668C6.73039 0 5.00116 1.7297 5.00116 3.85552V10.0115H0.862534C0.38942 10.0115 0.00585938 10.395 0.00585938 10.8681V38.1433C0.00585938 38.6164 0.38942 39 0.862534 39H15.0001H29.1377C29.6108 39 29.9944 38.6164 29.9944 38.1433V10.8681C29.9944 10.395 29.6106 10.0115 29.1375 10.0115ZM7.57128 3.85552C7.57128 3.14674 8.14797 2.57046 8.85633 2.57046H21.143C21.8518 2.57046 22.428 3.14716 22.428 3.85552V10.0115H7.57197L7.57128 3.85552ZM6.28622 16.4154C5.57654 16.4154 5.00116 15.8401 5.00116 15.1304C5.00116 14.4207 5.57651 13.8453 6.28622 13.8453C6.99593 13.8453 7.57128 14.4207 7.57128 15.1304C7.57173 15.8401 6.99593 16.4154 6.28622 16.4154ZM23.7129 16.4154C23.0032 16.4154 22.4278 15.8401 22.4278 15.1304C22.4278 14.4207 23.0032 13.8453 23.7129 13.8453C24.4226 13.8453 24.9979 14.4207 24.9979 15.1304C24.9979 15.8401 24.4226 16.4154 23.7129 16.4154Z" fill="#1A75CF"/>
</svg>
