<svg width="30" height="40" viewBox="0 0 30 40" fill="none" xmlns="http://www.w3.org/2000/svg">
<path d="M15.0004 0.000445203C6.87913 0.000445203 0.295898 6.29009 0.295898 14.0453C0.299701 14.6305 0.341523 15.2143 0.421715 15.7938C1.67883 26.7511 14.0449 39.3888 14.0449 39.3888C14.2271 39.5879 14.4428 39.7533 14.682 39.8777L15.1009 40L15.5198 39.8777H15.5202C15.7604 39.7512 15.9785 39.5862 16.1655 39.3888C16.1655 39.3888 28.3561 26.7511 29.5834 15.768C29.6598 15.1968 29.7003 14.6213 29.7048 14.0449C29.7048 6.28956 23.1216 0 15.0002 0L15.0004 0.000445203ZM15.0004 19.4208C11.8198 19.4208 9.23851 16.9565 9.23851 13.9189C9.23851 10.8815 11.8198 8.41724 15.0004 8.41724C18.181 8.41724 20.7623 10.8815 20.7623 13.9192C20.7623 16.9565 18.181 19.4208 15.0004 19.4208Z" fill="#1A75CF"/>
</svg>