<svg width="44" height="35" viewBox="0 0 44 35" fill="none" xmlns="http://www.w3.org/2000/svg">
<g clip-path="url(#clip0_325_3825)">
<path d="M24.2446 6.19238L34.7619 6.25502C35.4609 6.25409 36.1439 6.49026 36.7225 6.9329C37.3012 7.37554 37.7488 8.00469 38.0072 8.73775L40.4151 16.2357L42.7268 16.9651C43.0911 17.083 43.4119 17.3312 43.6415 17.6722C43.871 18.0132 43.9967 18.429 44 18.8572V23.8798H43.9823V28.8078H39.2326C38.7221 27.2724 37.6782 26.0396 36.3434 25.3952C35.0083 24.7507 33.4982 24.7507 32.1634 25.3952C30.8285 26.0397 29.7846 27.2725 29.2742 28.8078H24.206C24.206 27.2724 24.2446 10.622 24.2446 6.19238ZM28.7376 17.0962H38.0379L35.8272 10.2308H28.7371L28.7376 17.0962Z" fill="#1A75CF"/>
<path d="M30.506 30.9256C30.506 33.1728 32.1199 34.9947 34.1104 34.9947C36.101 34.9947 37.7148 33.1728 37.7148 30.9256C37.7148 28.6784 36.101 26.8564 34.1104 26.8564C32.1199 26.8564 30.506 28.6784 30.506 30.9256Z" fill="#1A75CF"/>
<path d="M8.76677 30.9256C8.76677 33.1728 10.3806 34.9947 12.3712 34.9947C14.3617 34.9947 15.9756 33.1728 15.9756 30.9256C15.9756 28.6784 14.3617 26.8564 12.3712 26.8564C10.3806 26.8564 8.76677 28.6784 8.76677 30.9256Z" fill="#1A75CF"/>
<path fill-rule="evenodd" clip-rule="evenodd" d="M1.19213 0C0.533581 0 -0.00028038 0.602694 -0.00028038 1.34615V27.7308C-0.00028038 28.4742 0.533581 29.0769 1.19213 29.0769L7.26483 29.0769C8.0341 26.7948 9.99017 25.1731 12.2816 25.1731C14.573 25.1731 16.529 26.7948 17.2983 29.0769L22.2978 29.0769C22.9564 29.0769 23.4902 28.4742 23.4902 27.7308V1.34615C23.4902 0.602694 22.9564 0 22.2978 0H1.19213Z" fill="#1A75CF"/>
</g>
<defs>
<clipPath id="clip0_325_3825">
<rect width="44" height="35" fill="white"/>
</clipPath>
</defs>
</svg>
