<svg width="40" height="40" viewBox="0 0 40 40" fill="none" xmlns="http://www.w3.org/2000/svg">
<path fill-rule="evenodd" clip-rule="evenodd" d="M8.8886 3.37061C12.1776 1.17298 16.0444 0 20 0C25.3025 0.0060496 30.386 2.11513 34.1355 5.86454C37.8849 9.61396 39.9939 14.6975 40 20C40 23.9556 38.827 27.8224 36.6294 31.1114C34.4318 34.4004 31.3082 36.9638 27.6537 38.4776C23.9991 39.9913 19.9778 40.3874 16.0982 39.6157C12.2186 38.844 8.65492 36.9392 5.85787 34.1421C3.06082 31.3451 1.15601 27.7814 0.384303 23.9018C-0.387401 20.0222 0.00866556 16.0009 1.52242 12.3463C3.03617 8.69181 5.59962 5.56823 8.8886 3.37061ZM29.2913 27.7737C30.6252 29.09 31.3887 30.8776 31.4171 32.7514H31.4186C34.0092 30.4382 35.8361 27.3927 36.6574 24.0181C37.4787 20.6435 37.2556 17.0991 36.0177 13.8541C34.7797 10.6091 32.5854 7.81667 29.7252 5.84652C26.865 3.87638 23.4738 2.82146 20.0007 2.82146C16.5276 2.82146 13.1365 3.87638 10.2763 5.84652C7.41604 7.81667 5.22169 10.6091 3.98378 13.8541C2.74586 17.0991 2.52278 20.6435 3.34406 24.0181C4.16534 27.3927 5.99224 30.4382 8.58286 32.7514C8.61134 30.8776 9.37478 29.09 10.7087 27.7737C12.0426 26.4574 13.8403 25.7178 15.7143 25.7143H24.2857C26.1597 25.7178 27.9574 26.4574 29.2913 27.7737ZM16.0264 9.7717C17.201 8.98683 18.582 8.56791 19.9947 8.56791C21.8891 8.56791 23.7059 9.32046 25.0455 10.66C26.385 11.9995 27.1376 13.8164 27.1376 15.7108C27.1376 17.1235 26.7187 18.5045 25.9338 19.6791C25.1489 20.8538 24.0334 21.7693 22.7282 22.3099C21.423 22.8505 19.9868 22.992 18.6012 22.7164C17.2156 22.4408 15.9429 21.7605 14.944 20.7615C13.945 19.7626 13.2647 18.4898 12.9891 17.1043C12.7135 15.7187 12.855 14.2825 13.3956 12.9773C13.9362 11.6721 14.8517 10.5566 16.0264 9.7717Z" fill="white"/>
</svg>
