<svg width="14" height="14" viewBox="0 0 14 14" fill="none" xmlns="http://www.w3.org/2000/svg">
<path fill-rule="evenodd" clip-rule="evenodd" d="M1.99236 11.6123C4.64883 14.2688 8.95583 14.2688 11.6123 11.6123C14.2688 8.95583 14.2688 4.64883 11.6123 1.99236C8.95583 -0.664119 4.64883 -0.664119 1.99236 1.99236C-0.664119 4.64883 -0.664119 8.95583 1.99236 11.6123ZM8.93977 3.59539C9.23493 3.30022 9.71349 3.30022 10.0086 3.59539C10.3038 3.89055 10.3038 4.36911 10.0086 4.66427L7.8708 6.80212L10.0085 8.93985C10.3037 9.23502 10.3037 9.71357 10.0085 10.0087C9.71337 10.3039 9.23482 10.3039 8.93965 10.0087L6.80192 7.871L4.66423 10.0087C4.36907 10.3038 3.89051 10.3038 3.59535 10.0087C3.30019 9.71352 3.30019 9.23497 3.59535 8.9398L5.73303 6.80212L3.59524 4.66432C3.30007 4.36916 3.30007 3.8906 3.59524 3.59544C3.8904 3.30027 4.36896 3.30027 4.66412 3.59544L6.80192 5.73324L8.93977 3.59539Z" fill="white"/>
</svg>
