<svg width="20" height="20" viewBox="0 0 20 20" fill="none" xmlns="http://www.w3.org/2000/svg">
<path fill-rule="evenodd" clip-rule="evenodd" d="M7.85709 0C12.1964 0 15.7142 3.51774 15.7142 7.85709C15.7142 9.76958 15.0309 11.5225 13.8951 12.885L19.7908 18.7806C20.0697 19.0596 20.0697 19.5118 19.7908 19.7908C19.5428 20.0387 19.158 20.0663 18.8796 19.8734L18.7806 19.7908L12.885 13.8951C11.5225 15.0309 9.76958 15.7142 7.85709 15.7142C3.51774 15.7142 0 12.1964 0 7.85709C0 3.51774 3.51774 0 7.85709 0ZM7.85712 1.4284C4.30674 1.4284 1.42859 4.30655 1.42859 7.85693C1.42859 11.4073 4.30674 14.2855 7.85712 14.2855C11.4075 14.2855 14.2856 11.4073 14.2856 7.85693C14.2856 4.30655 11.4075 1.4284 7.85712 1.4284Z" fill="white"/>
</svg>
