<svg width="18" height="18" viewBox="0 0 18 18" fill="none" xmlns="http://www.w3.org/2000/svg">
<path d="M8.99987 8.68287e-05C6.61299 8.68287e-05 4.32375 0.94843 2.63618 2.63627C0.948386 4.32406 0 6.61325 0 8.99997C0 11.387 0.948343 13.6761 2.63618 15.3641C4.32397 17.0519 6.61316 18.0001 8.99987 18.0001C11.3869 18.0001 13.676 17.0519 15.364 15.3641C17.0518 13.6763 18 11.3871 18 8.99997C17.9975 6.6139 17.0484 4.32601 15.3611 2.63887C13.674 0.951558 11.3862 0.00256286 9.00004 0L8.99987 8.68287e-05ZM9.6428 12.8574C9.6428 13.0871 9.52029 13.2994 9.32143 13.4141C9.12239 13.5289 8.87736 13.5289 8.6785 13.4141C8.47963 13.2994 8.35712 13.0871 8.35712 12.8574V12.2146C8.35712 11.9849 8.47963 11.7726 8.6785 11.6579C8.87736 11.543 9.12239 11.543 9.32143 11.6579C9.52029 11.7726 9.6428 11.9849 9.6428 12.2146V12.8574ZM9.98352 9.44629V9.44646C9.76752 9.55201 9.63381 9.77497 9.6428 10.0154V10.2861C9.6428 10.5156 9.52029 10.7279 9.32143 10.8428C9.12239 10.9575 8.87736 10.9575 8.6785 10.8428C8.47963 10.7279 8.35712 10.5156 8.35712 10.2861V10.0159C8.35102 9.64365 8.45571 9.278 8.65763 8.96524C8.85972 8.65252 9.14987 8.40667 9.49177 8.25902C9.76428 8.14687 9.98997 7.9441 10.1304 7.68499C10.2709 7.42571 10.3179 7.12607 10.2631 6.83642C10.1939 6.46245 9.96263 6.13837 9.63141 5.95119C9.30037 5.76404 8.9033 5.73316 8.54733 5.86686C8.19117 6.0004 7.91257 6.28479 7.78616 6.6435C7.73169 6.8074 7.61342 6.94247 7.45817 7.01815C7.30291 7.094 7.12373 7.10401 6.96084 7.04615C6.79812 6.98829 6.66543 6.8673 6.59297 6.71052C6.52035 6.55373 6.5139 6.37438 6.57516 6.21285C6.86548 5.39178 7.55182 4.77343 8.39869 4.57001C9.24539 4.36639 10.1377 4.60548 10.7695 5.20512C11.4012 5.80461 11.6866 6.6832 11.5276 7.53958C11.3686 8.39579 10.7871 9.11352 9.98214 9.44643L9.98352 9.44629Z" fill="#1A75CF"/>
</svg>
