<svg width="12" height="12" viewBox="0 0 12 12" fill="none" xmlns="http://www.w3.org/2000/svg">
<path fill-rule="evenodd" clip-rule="evenodd" d="M1.0002 5.39996C1.0002 2.9699 2.97014 0.999952 5.4002 0.999952C7.83025 0.999952 9.8002 2.9699 9.8002 5.39996C9.8002 6.59146 9.3266 7.67235 8.55738 8.46464C8.53985 8.47722 8.52311 8.49138 8.50735 8.50714C8.4916 8.52289 8.47743 8.53964 8.46485 8.55717C7.67256 9.32638 6.59169 9.79997 5.4002 9.79997C2.97014 9.79997 1.0002 7.83002 1.0002 5.39996ZM8.78347 9.34895C7.87406 10.1288 6.69215 10.6 5.4002 10.6C2.52832 10.6 0.200195 8.27185 0.200195 5.39996C0.200195 2.52807 2.52832 0.199951 5.4002 0.199951C8.27208 0.199951 10.6002 2.52807 10.6002 5.39996C10.6002 6.69193 10.129 7.87385 9.34916 8.78326L11.683 11.1171C11.8392 11.2734 11.8392 11.5266 11.683 11.6828C11.5268 11.839 11.2736 11.839 11.1174 11.6828L8.78347 9.34895Z" fill="#CBCDD3"/>
</svg>
