<svg width="11" height="12" viewBox="0 0 11 12" fill="none" xmlns="http://www.w3.org/2000/svg">
<path fill-rule="evenodd" clip-rule="evenodd" d="M7.57163 7.61933C7.57163 8.15055 7.16267 8.58118 6.6582 8.58118H4.57254C4.06807 8.58119 3.65911 8.15055 3.65911 7.61933L3.65911 5.37009H2.17098C1.64332 5.3701 1.36539 4.71159 1.71897 4.29917L5.16335 0.28161C5.40517 -0.00044582 5.82555 -0.000444911 6.06737 0.281609L9.51175 4.29917C9.86533 4.71159 9.5874 5.37009 9.05974 5.37009H7.57163L7.57163 7.61933ZM1.00091 10.0094C0.469698 10.0094 0.0390625 10.44 0.0390625 10.9712C0.0390625 11.5024 0.469698 11.9331 1.00091 11.9331H10.0384C10.5696 11.9331 11.0002 11.5024 11.0002 10.9712C11.0002 10.44 10.5696 10.0094 10.0384 10.0094H1.00091Z" fill="#1A75CF"/>
</svg>
