<svg width="14" height="14" viewBox="0 0 14 14" fill="none" xmlns="http://www.w3.org/2000/svg">
<path fill-rule="evenodd" clip-rule="evenodd" d="M8.09375 0H5.90625C5.54258 0 5.25 0.292578 5.25 0.65625V5.25H2.84922C2.3625 5.25 2.11914 5.83789 2.46367 6.18242L6.62813 10.3441C6.8332 10.5492 7.16953 10.5492 7.37461 10.3441L11.5336 6.18242C11.8781 5.83789 11.6348 5.25 11.148 5.25H8.75V0.65625C8.75 0.292578 8.45742 0 8.09375 0ZM14 13.3438V10.2812C14 9.91758 13.7074 9.625 13.3438 9.625H9.33242L7.99258 10.9648C7.44297 11.5145 6.55703 11.5145 6.00742 10.9648L4.66758 9.625H0.65625C0.292578 9.625 0 9.91758 0 10.2812V13.3438C0 13.7074 0.292578 14 0.65625 14H13.3438C13.7074 14 14 13.7074 14 13.3438ZM10.6094 12.6875C10.6094 12.3867 10.3633 12.1406 10.0625 12.1406C9.76172 12.1406 9.51562 12.3867 9.51562 12.6875C9.51562 12.9883 9.76172 13.2344 10.0625 13.2344C10.3633 13.2344 10.6094 12.9883 10.6094 12.6875ZM11.8125 12.1406C12.1133 12.1406 12.3594 12.3867 12.3594 12.6875C12.3594 12.9883 12.1133 13.2344 11.8125 13.2344C11.5117 13.2344 11.2656 12.9883 11.2656 12.6875C11.2656 12.3867 11.5117 12.1406 11.8125 12.1406Z" fill="#737373"/>
<mask id="mask0_1181_2135" style="mask-type:alpha" maskUnits="userSpaceOnUse" x="0" y="0" width="14" height="14">
<path fill-rule="evenodd" clip-rule="evenodd" d="M8.09375 0H5.90625C5.54258 0 5.25 0.292578 5.25 0.65625V5.25H2.84922C2.3625 5.25 2.11914 5.83789 2.46367 6.18242L6.62813 10.3441C6.8332 10.5492 7.16953 10.5492 7.37461 10.3441L11.5336 6.18242C11.8781 5.83789 11.6348 5.25 11.148 5.25H8.75V0.65625C8.75 0.292578 8.45742 0 8.09375 0ZM14 13.3438V10.2812C14 9.91758 13.7074 9.625 13.3438 9.625H9.33242L7.99258 10.9648C7.44297 11.5145 6.55703 11.5145 6.00742 10.9648L4.66758 9.625H0.65625C0.292578 9.625 0 9.91758 0 10.2812V13.3438C0 13.7074 0.292578 14 0.65625 14H13.3438C13.7074 14 14 13.7074 14 13.3438ZM10.6094 12.6875C10.6094 12.3867 10.3633 12.1406 10.0625 12.1406C9.76172 12.1406 9.51562 12.3867 9.51562 12.6875C9.51562 12.9883 9.76172 13.2344 10.0625 13.2344C10.3633 13.2344 10.6094 12.9883 10.6094 12.6875ZM11.8125 12.1406C12.1133 12.1406 12.3594 12.3867 12.3594 12.6875C12.3594 12.9883 12.1133 13.2344 11.8125 13.2344C11.5117 13.2344 11.2656 12.9883 11.2656 12.6875C11.2656 12.3867 11.5117 12.1406 11.8125 12.1406Z" fill="white"/>
</mask>
<g mask="url(#mask0_1181_2135)">
<rect x="-2.86377" y="-7" width="24.1818" height="24.1818" fill="#737373"/>
</g>
</svg>
