<svg width="20" height="20" viewBox="0 0 20 20" fill="none" xmlns="http://www.w3.org/2000/svg">
<path fill-rule="evenodd" clip-rule="evenodd" d="M19.4134 0.586405C18.6313 -0.195449 17.3586 -0.195488 16.5764 0.586405L12.0458 5.11537L14.8828 7.9513L19.4134 3.42233C20.1955 2.64047 20.1955 1.36826 19.4134 0.586405ZM14.1617 8.91747L11.087 5.84389C10.0875 4.8448 8.4938 4.74722 7.37986 5.61693L7.23836 5.7274L14.2782 12.7647L14.3887 12.6233C15.2588 11.5098 15.1611 9.91659 14.1617 8.91747ZM0.229405 11.1996L6.29076 6.46724L13.5382 13.712L8.80411 19.7712C8.69888 19.9059 8.54097 19.989 8.37035 19.9994C8.1997 20.0099 8.0328 19.9466 7.91193 19.8258L5.96302 17.8776L8.90329 14.6388C9.12475 14.3949 9.10653 14.0187 8.86242 13.7963C8.61842 13.5749 8.24104 13.5932 8.01959 13.8372L5.1182 17.0331L2.96847 14.8842L6.1656 11.9839C6.40964 11.7625 6.42793 11.3853 6.20647 11.1413C5.9858 10.8983 5.60773 10.8791 5.36365 11.1004L2.12369 14.0396L0.174775 12.0914C0.0539079 11.9706 -0.00931954 11.8038 0.00111417 11.6332C0.011587 11.4626 0.0947049 11.3047 0.229405 11.1996Z" fill="#737373"/>
</svg>
