<svg width="17" height="16" viewBox="0 0 17 16" fill="none" xmlns="http://www.w3.org/2000/svg">
<path fill-rule="evenodd" clip-rule="evenodd" d="M5.05227 2.43478C5.05227 3.77948 3.96142 4.86957 2.6158 4.86957C1.27017 4.86957 0.179321 3.77948 0.179321 2.43478C0.179321 1.09009 1.27017 0 2.6158 0C3.96142 0 5.05227 1.09009 5.05227 2.43478ZM4.30259 2.43478C4.30259 1.50384 3.54738 0.749164 2.6158 0.749164C1.68421 0.749164 0.929006 1.50384 0.929006 2.43478C0.929006 3.36572 1.68421 4.1204 2.6158 4.1204C3.54738 4.1204 4.30259 3.36572 4.30259 2.43478ZM10.6213 2.43478C10.6213 3.77948 9.53047 4.86957 8.18485 4.86957C6.83922 4.86957 5.74837 3.77948 5.74837 2.43478C5.74837 1.09009 6.83922 0 8.18485 0C9.53047 0 10.6213 1.09009 10.6213 2.43478ZM9.87164 2.43478C9.87164 1.50384 9.11644 0.749164 8.18485 0.749164C7.25326 0.749164 6.49806 1.50384 6.49806 2.43478C6.49806 3.36572 7.25326 4.1204 8.18485 4.1204C9.11644 4.1204 9.87164 3.36572 9.87164 2.43478ZM13.7539 4.86957C15.0996 4.86957 16.1904 3.77948 16.1904 2.43478C16.1904 1.09009 15.0996 0 13.7539 0C12.4083 0 11.3175 1.09009 11.3175 2.43478C11.3175 3.77948 12.4083 4.86957 13.7539 4.86957ZM13.7539 0.749164C14.6855 0.749164 15.4407 1.50384 15.4407 2.43478C15.4407 3.36572 14.6855 4.1204 13.7539 4.1204C12.8224 4.1204 12.0672 3.36572 12.0672 2.43478C12.0672 1.50384 12.8224 0.749164 13.7539 0.749164ZM5.05227 8.00002C5.05227 9.34471 3.96142 10.4348 2.6158 10.4348C1.27017 10.4348 0.179321 9.34471 0.179321 8.00002C0.179321 6.65532 1.27017 5.56524 2.6158 5.56524C3.96142 5.56524 5.05227 6.65533 5.05227 8.00002ZM4.30259 8.00002C4.30259 7.06908 3.54738 6.3144 2.6158 6.3144C1.68421 6.3144 0.929006 7.06908 0.929006 8.00002C0.929006 8.93096 1.68421 9.68564 2.6158 9.68564C3.54738 9.68564 4.30259 8.93096 4.30259 8.00002ZM8.18485 10.4348C9.53047 10.4348 10.6213 9.34471 10.6213 8.00002C10.6213 6.65533 9.53047 5.56524 8.18485 5.56524C6.83922 5.56524 5.74837 6.65532 5.74837 8.00002C5.74837 9.34471 6.83922 10.4348 8.18485 10.4348ZM8.18485 6.3144C9.11644 6.3144 9.87164 7.06908 9.87164 8.00002C9.87164 8.93096 9.11644 9.68564 8.18485 9.68564C7.25326 9.68564 6.49806 8.93096 6.49806 8.00002C6.49806 7.06908 7.25326 6.3144 8.18485 6.3144ZM16.1904 8.00002C16.1904 9.34471 15.0996 10.4348 13.7539 10.4348C12.4083 10.4348 11.3175 9.34471 11.3175 8.00002C11.3175 6.65532 12.4083 5.56524 13.7539 5.56524C15.0996 5.56524 16.1904 6.65533 16.1904 8.00002ZM15.4407 8.00002C15.4407 7.06908 14.6855 6.3144 13.7539 6.3144C12.8224 6.3144 12.0672 7.06908 12.0672 8.00002C12.0672 8.93096 12.8224 9.68564 13.7539 9.68564C14.6855 9.68564 15.4407 8.93096 15.4407 8.00002ZM2.6158 16C3.96142 16 5.05227 14.9099 5.05227 13.5653C5.05227 12.2206 3.96142 11.1305 2.6158 11.1305C1.27017 11.1305 0.179321 12.2206 0.179321 13.5653C0.179321 14.9099 1.27017 16 2.6158 16ZM2.6158 11.8796C3.54738 11.8796 4.30259 12.6343 4.30259 13.5653C4.30259 14.4962 3.54738 15.2509 2.6158 15.2509C1.68421 15.2509 0.929006 14.4962 0.929006 13.5653C0.929006 12.6343 1.68421 11.8796 2.6158 11.8796ZM10.6213 13.5653C10.6213 14.9099 9.53047 16 8.18485 16C6.83922 16 5.74837 14.9099 5.74837 13.5653C5.74837 12.2206 6.83922 11.1305 8.18485 11.1305C9.53047 11.1305 10.6213 12.2206 10.6213 13.5653ZM9.87164 13.5653C9.87164 12.6343 9.11644 11.8796 8.18485 11.8796C7.25326 11.8796 6.49806 12.6343 6.49806 13.5653C6.49806 14.4962 7.25326 15.2509 8.18485 15.2509C9.11644 15.2509 9.87164 14.4962 9.87164 13.5653ZM13.7539 16C15.0996 16 16.1904 14.9099 16.1904 13.5653C16.1904 12.2206 15.0996 11.1305 13.7539 11.1305C12.4083 11.1305 11.3175 12.2206 11.3175 13.5653C11.3175 14.9099 12.4083 16 13.7539 16ZM13.7539 11.8796C14.6855 11.8796 15.4407 12.6343 15.4407 13.5653C15.4407 14.4962 14.6855 15.2509 13.7539 15.2509C12.8224 15.2509 12.0672 14.4962 12.0672 13.5653C12.0672 12.6343 12.8224 11.8796 13.7539 11.8796Z" fill="white"/>
</svg>
