<svg width="18" height="18" viewBox="0 0 18 18" fill="none" xmlns="http://www.w3.org/2000/svg">
<path d="M4.5 5.25H3.75V15C3.75 15.3978 3.90804 15.7794 4.18934 16.0607C4.47064 16.342 4.85217 16.5 5.25 16.5H12.75C13.1478 16.5 13.5294 16.342 13.8107 16.0607C14.092 15.7794 14.25 15.3978 14.25 15V5.25H4.5ZM7.5 14.25C7.5 15 6 15 6 14.25C6 13.5 6 8.25 6 7.5C6 6.75 7.5 6.75 7.5 7.5C7.5 8.25 7.5 13.5 7.5 14.25ZM12 14.25C12 15 10.5 15 10.5 14.25C10.5 13.5 10.5 8.25 10.5 7.5C10.5 6.75 12 6.75 12 7.5C12 8.25 12 13.5 12 14.25ZM12.4635 3L11.25 1.5H6.75L5.5365 3C5.5365 3 3 3 2.25 3C1.5 3 1.5 4.5 2.25 4.5C3 4.5 15 4.5 15.75 4.5C16.5 4.5 16.5 3 15.75 3C15 3 12.4635 3 12.4635 3Z" fill="#1A75CF"/>
</svg>
