<svg width="18" height="18" viewBox="0 0 18 18" fill="none" xmlns="http://www.w3.org/2000/svg">
<path d="M17.4629 2.13917L15.8609 0.537204C15.5161 0.193058 15.0489 0 14.5621 0C14.075 0 13.6078 0.193058 13.2633 0.537204L0.175662 13.6245C0.0630614 13.7371 4.95327e-07 13.8897 4.95327e-07 14.0489V17.3999C-0.000204223 17.5592 0.0630561 17.7117 0.175662 17.8243C0.288058 17.9369 0.440789 18 0.600073 18H3.95114C4.11043 18 4.26295 17.9367 4.37535 17.8241L17.463 4.7368C17.8069 4.39204 18 3.92487 18 3.43803C18 2.95098 17.8068 2.48393 17.4629 2.13917ZM3.70231 16.7999H1.19946V14.2973L11.2111 4.28642L13.7139 6.789L3.70231 16.7999ZM16.6143 3.8881L14.5621 5.94027L12.0593 3.43769L14.1115 1.38551C14.3605 1.13759 14.7632 1.13759 15.0121 1.38551L16.6141 2.98748C16.8621 3.23664 16.8623 3.63915 16.6143 3.8881ZM18 17.3994C18 17.5587 17.9367 17.7112 17.8241 17.8238C17.7115 17.9364 17.559 17.9995 17.3997 17.9995H10.7996C10.4681 17.9995 10.1995 17.7309 10.1995 17.3995C10.1995 17.0682 10.4681 16.7996 10.7996 16.7996H17.3997C17.559 16.7994 17.7113 16.8627 17.8239 16.9751C17.9365 17.0877 18 17.2404 18 17.3994ZM8.99994 17.3994C9.00014 17.5587 8.93668 17.7112 8.82428 17.8238C8.71167 17.9364 8.55894 17.9995 8.39986 17.9995H7.19975C6.8685 17.9995 6.59969 17.7309 6.59969 17.3995C6.59969 17.0682 6.86851 16.7996 7.19975 16.7996H8.39986C8.55894 16.7994 8.71167 16.8627 8.82407 16.9751C8.93667 17.0877 9.00014 17.2404 8.99994 17.3994Z" fill="#1A75CF"/>
<path fill-rule="evenodd" clip-rule="evenodd" d="M14.3984 7.10937L12.875 8.63281L9.75 5.50781L11.2734 3.98438C11.4297 3.82812 11.625 3.75 11.8594 3.75C12.0938 3.75 12.2891 3.82812 12.4453 3.98438L14.3984 5.9375C14.5547 6.09375 14.6328 6.28906 14.6328 6.52344C14.6328 6.75781 14.5547 6.95312 14.3984 7.10937Z" fill="#1A75CF"/>
<path fill-rule="evenodd" clip-rule="evenodd" d="M16.212 5.62811L4.5 17.2501L0.75 13.5001L12.372 1.78811C12.564 1.59611 11.304 3.75011 13.092 2.25011C13.38 2.25011 12.87 2.34611 13.062 2.53811L15.462 4.93811C15.654 5.13011 15.75 4.87512 15.75 4.90811C15.75 5.19611 16.404 5.43611 16.212 5.62811Z" fill="#1A75CF"/>
</svg>
