<svg width="16" height="18" viewBox="0 0 16 18" fill="none" xmlns="http://www.w3.org/2000/svg">
<path fill-rule="evenodd" clip-rule="evenodd" d="M9.75 0H1.95C0.86775 0 0 0.801 0 1.8V16.2C0 17.199 0.86775 18 1.95 18H13.65C14.7323 18 15.6 17.199 15.6 16.2V5.4L9.75 0ZM8.775 6.3V1.35L14.1375 6.3H8.775ZM2.40026 12.5996C2.40026 12.2682 2.66889 11.9996 3.00026 11.9996H9.00026C9.33163 11.9996 9.60026 12.2682 9.60026 12.5996C9.60026 12.931 9.33163 13.1996 9.00026 13.1996H3.00026C2.66889 13.1996 2.40026 12.931 2.40026 12.5996ZM3.00026 14.3999C2.66889 14.3999 2.40026 14.6685 2.40026 14.9999C2.40026 15.3312 2.66889 15.5999 3.00026 15.5999H6.60026C6.93163 15.5999 7.20026 15.3312 7.20026 14.9999C7.20026 14.6685 6.93163 14.3999 6.60026 14.3999H3.00026Z" fill="#FEF3C3"/>
</svg>
