<svg width="18" height="16" viewBox="0 0 18 16" fill="none" xmlns="http://www.w3.org/2000/svg">
<path d="M7.08246 6.54892C7.47299 6.1584 8.10615 6.1584 8.49668 6.54892L9.02987 7.08211C9.42039 7.47264 9.42039 8.1058 9.02987 8.49633L2.65446 14.8717C2.26394 15.2623 1.63077 15.2623 1.24025 14.8717L0.707054 14.3385C0.31653 13.948 0.31653 13.3149 0.707054 12.9243L7.08246 6.54892Z" fill="#FEF3C3"/>
<path d="M0.708084 2.65437C0.31756 2.26385 0.317559 1.63068 0.708083 1.24016L1.24127 0.706968C1.6318 0.316444 2.26496 0.316443 2.65549 0.706967L9.0309 7.08238C9.42142 7.4729 9.42142 8.10607 9.0309 8.49659L8.4977 9.02978C8.10718 9.4203 7.47401 9.42031 7.08349 9.02978L0.708084 2.65437Z" fill="#FEF3C3"/>
<path d="M15.3447 6.54892C15.7352 6.1584 16.3684 6.1584 16.7589 6.54892L17.2921 7.08211C17.6826 7.47264 17.6826 8.1058 17.2921 8.49633L10.9167 14.8717C10.5261 15.2623 9.89298 15.2623 9.50245 14.8717L8.96926 14.3385C8.57874 13.948 8.57874 13.3149 8.96926 12.9243L15.3447 6.54892Z" fill="#FEF3C3"/>
<path d="M8.97029 2.65437C8.57977 2.26385 8.57977 1.63068 8.97029 1.24016L9.50348 0.706968C9.89401 0.316444 10.5272 0.316443 10.9177 0.706967L17.2931 7.08238C17.6836 7.4729 17.6836 8.10607 17.2931 8.49659L16.7599 9.02978C16.3694 9.4203 15.7362 9.42031 15.3457 9.02978L8.97029 2.65437Z" fill="#FEF3C3"/>
</svg>
