<svg width="18" height="19" viewBox="0 0 18 19" fill="none" xmlns="http://www.w3.org/2000/svg">
<rect x="18" y="3" width="18" height="3" rx="1.5" transform="rotate(-180 18 3)" fill="#FEF3C3"/>
<path fill-rule="evenodd" clip-rule="evenodd" d="M10.5553 18C11.1076 18 11.5553 17.5523 11.5553 17L11.5553 12.9923L14.499 12.9923C14.9323 12.9923 15.1605 12.4789 14.8702 12.1573L9.21393 5.89193C9.01538 5.672 8.67021 5.672 8.47166 5.89193L2.81545 12.1573C2.52513 12.4789 2.75333 12.9923 3.18658 12.9923L6.13032 12.9923L6.13032 17C6.13032 17.5523 6.57804 18 7.13032 18L10.5553 18Z" fill="#FEF3C3"/>
<path fill-rule="evenodd" clip-rule="evenodd" d="M10.5553 17.5C10.8314 17.5 11.0553 17.2761 11.0553 17L11.0553 12.4923L14.499 12.4923L8.84279 6.22698L3.18657 12.4923L6.63032 12.4923L6.63032 17C6.63032 17.2761 6.85418 17.5 7.13032 17.5L10.5553 17.5ZM12.0553 17C12.0553 17.8284 11.3837 18.5 10.5553 18.5L7.13032 18.5C6.30189 18.5 5.63032 17.8284 5.63032 17L5.63032 13.4923L3.18657 13.4923C2.32008 13.4923 1.86366 12.4654 2.44431 11.8222L8.10052 5.55688C8.49762 5.11702 9.18796 5.11702 9.58506 5.55688L15.2413 11.8222C15.8219 12.4654 15.3655 13.4923 14.499 13.4923L12.0553 13.4923L12.0553 17Z" fill="#FEF3C3"/>
</svg>
