<svg width="8" height="12" viewBox="0 0 8 12" fill="none" xmlns="http://www.w3.org/2000/svg">
<path d="M5.41449 5.29403C5.80501 4.90351 6.43818 4.90351 6.8287 5.29403C7.21923 5.68456 7.21923 6.31772 6.8287 6.70825L2.58606 10.9509C2.19554 11.3414 1.56237 11.3414 1.17185 10.9509C0.781323 10.5604 0.781323 9.9272 1.17185 9.53667L5.41449 5.29403Z" fill="white"/>
<path d="M1.17244 2.46492C0.781914 2.07439 0.781915 1.44123 1.17244 1.05071C1.56296 0.660182 2.19613 0.660182 2.58665 1.05071L6.82929 5.29335C7.21982 5.68387 7.21982 6.31704 6.82929 6.70756C6.43877 7.09809 5.8056 7.09809 5.41508 6.70756L1.17244 2.46492Z" fill="white"/>
</svg>
