<svg width="90" height="83" viewBox="0 0 90 83" fill="none" xmlns="http://www.w3.org/2000/svg">
<path fill-rule="evenodd" clip-rule="evenodd" d="M85.1553 77.5558L45 4.86522L4.84467 77.5558H85.1553ZM49.2289 2.50246C47.3857 -0.834154 42.6143 -0.834152 40.7711 2.50246L0.615749 75.1931C-1.17563 78.4359 1.15599 82.4211 4.84467 82.4211H85.1553C88.844 82.4211 91.1756 78.4359 89.3842 75.1931L49.2289 2.50246Z" fill="#E5722B"/>
<path d="M39.79 25.6846C39.79 24.58 40.6855 23.6846 41.79 23.6846L48.2111 23.6846C49.3157 23.6846 50.2111 24.58 50.2111 25.6846L50.2111 51.053C50.2111 52.1576 49.3157 53.053 48.2111 53.053L41.79 53.053C40.6855 53.053 39.79 52.1576 39.79 51.053L39.79 25.6846Z" fill="#E5722B"/>
<rect x="39.79" y="62.5264" width="10.4211" height="10.4211" rx="2" fill="#E5722B"/>
</svg>
